<?xml version="1.0" encoding="UTF-8"?>
<!DOCTYPE svg PUBLIC "-//W3C//DTD SVG 1.1//EN" "http://www.w3.org/Graphics/SVG/1.1/DTD/svg11.dtd">
<!-- Creator: CorelDRAW -->
<svg xmlns="http://www.w3.org/2000/svg" xml:space="preserve" width="210mm" height="297mm" version="1.1" style="shape-rendering:geometricPrecision; text-rendering:geometricPrecision; image-rendering:optimizeQuality; fill-rule:evenodd; clip-rule:evenodd"
viewBox="0 0 21000 29700"
 xmlns:xlink="http://www.w3.org/1999/xlink"
 xmlns:xodm="http://www.corel.com/coreldraw/odm/2003"
 enable-background="new 0 0 1133.76 831.12">
 <defs>
  <style type="text/css">
   <![CDATA[
    .fil1 {fill:#101010;fill-rule:nonzero}
    .fil2 {fill:#EC2027;fill-rule:nonzero}
    .fil0 {fill:#FFFEFE;fill-rule:nonzero}
   ]]>
  </style>
 </defs>
 <g id="Layer_x0020_1">
  <metadata id="CorelCorpID_0Corel-Layer"/>
  <g id="_2011425838944">
   <path class="fil0" d="M5602.44 18226.44c0,22.53 -0.02,45.07 0.02,67.59 0,3.85 -0.1,7.72 0.42,11.49 0.8,5.9 6.1,10.12 12.08,9.95 3.33,-0.09 6.62,-0.25 9.76,-1.85 13.75,-6.99 29.02,-9.05 43.74,-12.52 22.19,-5.23 44.38,-10.43 66.34,-16.54 24.25,-6.73 47.91,-15.3 71.73,-23.44 36.53,-12.48 71.83,-27.79 106.65,-44.19 24.11,-11.37 47.52,-24.26 70.88,-37.14 16.68,-9.2 33,-19.14 49.04,-29.44 37.38,-24.03 73.48,-49.85 107.82,-78.15 24.39,-20.1 48.68,-40.27 71.04,-62.65 3.39,-3.39 6.63,-7 10.39,-9.93 8.76,-6.78 16.36,-14.75 23.94,-22.73 12.52,-13.2 25.1,-26.35 37.26,-39.89 14.38,-16.02 28.85,-32.01 42.36,-48.78 20.97,-26.03 41.51,-52.4 61.2,-79.47 31.2,-42.91 59.81,-87.44 86.84,-132.99 21.16,-35.67 41.23,-72 59.4,-109.3 14.41,-29.55 29.09,-58.99 42.53,-88.97 15.38,-34.29 30.13,-68.86 43.55,-103.98 8.32,-21.75 16.57,-43.53 24.44,-65.45 17.99,-50.09 33.72,-100.91 49.2,-151.83 14.25,-46.85 25.11,-94.54 37.19,-141.94 5.98,-23.47 11.41,-47.09 16.32,-70.81 3.06,-14.88 5.92,-29.84 8.73,-44.77 2.79,-14.95 6.07,-29.8 8.81,-44.75 2.13,-11.7 4.25,-23.41 6.03,-35.16 1.71,-11.29 3.19,-22.59 5.43,-33.81 1.77,-8.86 2.4,-17.94 3.46,-26.94 1.2,-10.41 1.7,-20.95 3.61,-31.24 2.42,-13.13 4.46,-26.27 5.14,-39.61 0.11,-2.39 -0.02,-4.86 0.55,-7.15 5.27,-21.42 4.78,-43.5 7.45,-65.23 2.03,-16.57 2.62,-33.31 3.86,-49.98 0.04,-0.48 -0.04,-0.98 0.08,-1.43 3.59,-14.64 1.58,-29.55 2.08,-44.33 0.25,-7.62 -2.91,-13.96 -8.71,-18.84 -2.91,-2.44 -6.03,-4.69 -9.26,-6.67 -8.14,-4.97 -16.35,-9.86 -24.63,-14.57 -37.38,-21.28 -76.98,-37.32 -118.19,-49.46 -7.76,-2.29 -12.64,0.65 -14.72,8.7 -1.19,4.61 -2.25,9.19 -2.17,14.07 0.15,10.55 -0.14,21.1 -0.32,31.64 -0.14,8.15 0.31,16.4 -0.75,24.43 -2.61,19.89 -3.36,39.91 -4.86,59.87 -1.39,18.58 -2.33,37.19 -3.46,55.79 -0.06,0.96 0.13,2.01 -0.22,2.86 -2.81,6.88 -1.59,14.19 -2.38,21.3 -0.85,7.56 -1.79,15.12 -2.51,22.71 -1.22,12.82 -2.29,25.66 -3.44,38.5 -0.13,1.42 -0.21,2.87 -0.49,4.26 -2.53,12.62 -4.54,25.32 -5.14,38.19 -0.11,2.39 0.1,4.87 -0.41,7.17 -5.16,23.27 -6.95,47.06 -11.04,70.48 -1.4,7.98 -2.33,16.03 -3.44,24.04 -1.95,14.11 -5.82,27.96 -7.48,42.09 -2.11,18.02 -6.22,35.65 -9.78,53.32 -7.02,34.92 -14.93,69.68 -23.15,104.34 -10.29,43.44 -22.55,86.41 -35.7,129.07 -15.81,51.32 -33.26,102.1 -53.01,152.07 -13.65,34.54 -28.15,68.72 -44.02,102.24 -15.29,32.31 -31.27,64.3 -48.57,95.62 -23.77,43.04 -49.18,85.07 -77.07,125.57 -18.97,27.54 -38.92,54.36 -59.79,80.53 -18.8,23.58 -38.07,46.77 -58.56,68.84 -35.55,38.31 -73.14,74.59 -113.49,107.86 -27.64,22.8 -56.32,44.29 -86.07,64.3 -28.1,18.89 -57.04,36.38 -86.76,52.67 -41.81,22.94 -84.85,43.09 -129.47,59.85 -39.13,14.71 -78.71,28.09 -119.4,37.91 -5.54,1.33 -11.13,2.52 -16.58,4.17 -9.32,2.83 -14.19,9.19 -14.24,19.06 -0.02,3.84 -0.07,7.67 -0.07,11.51 -0.02,20.63 -0.02,41.25 -0.02,61.87z"/>
   <path class="fil0" d="M6034.23 14146.2c0,-21.58 0.02,-43.15 -0.01,-64.73 0,-3.83 0.13,-7.7 -0.32,-11.49 -0.83,-7.11 -4.22,-10.25 -11.22,-10.3 -4.78,-0.03 -9.85,-0.37 -14.26,1.06 -8.19,2.65 -16.51,4.32 -24.88,6.14 -18.55,4.06 -36.95,8.81 -55.41,13.28 -31.89,7.74 -62.7,19.03 -93.75,29.4 -21.17,7.08 -41.73,15.9 -62.2,24.92 -17.41,7.68 -34.84,15.3 -51.84,23.87 -7.23,3.64 -14.31,7.56 -21.5,11.29 -31.35,16.24 -61.67,34.24 -91.29,53.46 -29.67,19.26 -58.13,40.14 -85.8,62.17 -26.23,20.87 -52.12,42.13 -76.15,65.48 -23.03,22.39 -45.38,45.48 -67.99,68.29 -4.05,4.08 -8.22,8.1 -11.85,12.54 -16.99,20.7 -34.87,40.62 -51.6,61.56 -20.6,25.78 -40.61,51.96 -59.48,78.98 -35.55,50.88 -68.42,103.44 -98.18,157.92 -19.18,35.12 -37.94,70.44 -55.1,106.64 -20,42.18 -38.9,84.8 -56.35,128.07 -17.78,44.07 -34.7,88.48 -49.52,133.67 -3.55,10.83 -7.81,21.43 -11.16,32.33 -8.92,29.06 -17.65,58.17 -26.2,87.35 -5.19,17.77 -10.1,35.64 -14.78,53.56 -5.87,22.51 -11.43,45.11 -17.01,67.7 -3.99,16.14 -7.93,32.28 -11.65,48.48 -4.68,20.37 -9.64,40.69 -13.51,61.21 -3.09,16.35 -6.36,32.7 -8.88,49.12 -3.03,19.76 -7.4,39.26 -10.33,59.05 -3.12,21.14 -6.42,42.29 -10.05,63.37 -1.29,7.51 -2.44,15.08 -2.97,22.66 -0.83,11.91 -4.01,23.58 -3.52,35.61 -4.45,21.52 -5.52,43.46 -7.43,65.25 -1.7,19.47 -4.16,38.88 -5.66,58.34 -1.36,17.65 -0.73,35.46 -1.04,53.18 -0.1,5.15 1.93,9.22 5.51,12.76 4.78,4.73 10.12,8.68 15.65,12.52 33.05,22.89 68,42.14 105.82,55.95 5.33,1.94 10.77,4.04 16.32,4.8 10.11,1.39 13.83,0.33 16.25,-10.91 0.5,-2.32 1.35,-4.65 1.33,-6.96 -0.14,-18.68 2.24,-37.21 2.99,-55.83 0.31,-7.64 0.11,-15.39 1.34,-22.9 2.15,-13.19 2.96,-26.5 4.33,-39.74 1.13,-10.89 1.19,-21.85 2.4,-32.81 2.06,-18.46 4.49,-36.91 6.01,-55.43 1.33,-16.17 3.87,-32.15 5.66,-48.24 1.96,-17.52 3.81,-35.04 6.4,-52.48 1.34,-8.95 2.23,-17.97 3.74,-26.88 2.29,-13.58 5.11,-27.08 7.39,-40.67 3.32,-19.71 5.48,-39.65 9.74,-59.13 4.66,-21.36 8.25,-42.91 12.9,-64.27 5.36,-24.6 11.32,-49.07 16.86,-73.62 6.17,-27.32 12.76,-54.56 20.96,-81.39 8.73,-28.6 16.2,-57.62 25.51,-86.04 15.1,-46.05 30.79,-91.87 48.78,-136.95 16.43,-41.14 33.82,-81.8 52.9,-121.72 16.85,-35.25 34.67,-70.05 54.25,-103.93 16.48,-28.51 33.54,-56.62 51.4,-84.26 15.3,-23.69 31.79,-46.5 48.47,-69.21 25.51,-34.72 52.52,-68.22 81.74,-99.81 36.78,-39.75 75.11,-77.97 116.91,-112.58 25.05,-20.75 50.64,-40.74 77.31,-59.33 34.08,-23.75 69.28,-45.71 105.98,-65.16 23.97,-12.7 48.19,-24.93 73.24,-35.5 20.14,-8.5 40.1,-17.41 60.84,-24.45 30.57,-10.38 60.98,-21.22 92.33,-29.11 5.53,-1.4 11.16,-2.52 16.57,-4.3 10.97,-3.61 14.47,-8.49 14.98,-19.94 0.13,-2.87 0.09,-5.75 0.09,-8.63 0,-21.09 0,-42.18 -0.01,-63.28z"/>
   <path class="fil0" d="M7856.59 16409.94c18.7,0 37.39,-0.03 56.09,0.03 5.3,0.02 10.49,-0.36 15.54,-2.1 4.51,-1.55 7.52,-4.41 7.6,-9.31 0.08,-5.25 0.28,-10.63 -0.69,-15.75 -3.83,-20.12 -7.68,-40.27 -12.25,-60.24 -6.71,-29.26 -14.89,-58.15 -23.56,-86.89 -11.31,-37.48 -25.29,-73.99 -40.62,-109.95 -22.91,-53.71 -50.5,-104.96 -81.82,-154.25 -47.98,-75.51 -104.45,-144.14 -167.63,-207.35 -8.46,-8.46 -17.49,-16.35 -26.12,-24.66 -18.65,-17.94 -38.09,-34.97 -57.87,-51.67 -34.77,-29.35 -71.05,-56.72 -108.31,-82.8 -64.3,-44.97 -131.9,-84.44 -201.42,-120.74 -43.58,-22.75 -88.27,-43.1 -133.3,-62.73 -45.01,-19.61 -90.74,-37.46 -136.98,-53.85 -44.88,-15.89 -89.9,-31.47 -135.75,-44.44 -23.38,-6.62 -46.57,-13.95 -70.08,-20 -41.99,-10.79 -84.07,-21.26 -126.31,-31.06 -25.53,-5.91 -51.43,-10.17 -77.12,-15.42 -16.82,-3.44 -33.79,-6.03 -50.62,-9.27 -21.56,-4.16 -43.21,-7.58 -64.84,-11.27 -7.57,-1.3 -15.24,-1.47 -22.72,-2.9 -28.66,-5.47 -57.79,-7.12 -86.64,-11.08 -5.19,-0.72 -10.34,-1.84 -15.55,-2.29 -26.67,-2.3 -53.34,-4.44 -80.01,-6.64 -1.43,-0.12 -2.87,-0.15 -4.29,-0.35 -17.61,-2.44 -35.33,-2.02 -53.03,-2.05 -8.26,-0.01 -14.78,3.59 -19.69,10.04 -3.46,4.56 -6.68,9.32 -9.84,14.11 -17.66,26.72 -34.62,53.89 -50.79,81.53 -6.27,10.72 -12.03,21.73 -18.06,32.59 -2.12,3.82 -3.77,7.75 -3.55,12.23 0.15,3.07 1.43,5.61 4.2,7.04 3.85,1.96 7.89,3.2 12.33,3.39 13.84,0.6 27.68,1.5 41.52,2.16 12.45,0.59 24.98,0.33 37.34,1.66 19,2.03 37.9,4.95 57.08,5.08 3.35,0.02 6.78,-0.02 10.02,0.69 12.66,2.77 25.65,2.25 38.43,4.36 17.4,2.87 35.12,3.74 52.67,5.79 24.18,2.82 48.33,5.91 72.47,8.97 6.62,0.84 13.19,2.08 19.79,2.99 9,1.25 18.06,2.05 27.01,3.56 20.68,3.48 41.32,7.24 61.96,10.92 22.53,4.01 45.15,7.59 67.55,12.21 30.81,6.36 61.48,13.37 92.14,20.37 53.9,12.31 106.99,27.68 159.79,43.9 47.36,14.54 94.04,31.11 140.24,49.1 68.51,26.68 135.4,56.81 200.22,91.51 58.21,31.16 114.26,65.75 167.96,104.2 57.36,41.07 111.69,85.66 161.05,136.16 14.75,15.08 29.99,29.72 44.02,45.45 29.96,33.59 58.24,68.55 84.13,105.44 23.39,33.31 45.17,67.6 64.43,103.42 25.12,46.7 47.78,94.55 65.31,144.7 10.39,29.7 21.1,59.28 28.42,89.95 2.42,10.2 5.37,20.27 8.01,30.42 2.54,9.75 9.66,13.72 18.87,14.84 3.32,0.4 6.71,0.24 10.06,0.24 17.73,0.03 35.47,0.02 53.21,0.01z"/>
   <path class="fil0" d="M4069.28 15961.88l0 -0.03c-19.65,0 -39.3,-0.04 -58.96,0.03 -3.81,0.01 -7.72,0 -11.42,0.79 -7.24,1.53 -11,7.86 -9.02,15.17 2.11,7.82 4.74,15.5 7.11,23.24 13.45,43.85 30.24,86.42 49.65,127.93 20.89,44.64 45.65,87.19 73.04,128.12 30.13,45.02 63.82,87.37 100.91,126.85 22.3,23.72 45.44,46.67 69.56,68.64 39.36,35.84 81.22,68.47 124.75,99.02 56.81,39.89 116.69,74.59 178.47,106.12 42.48,21.68 85.95,41.2 130.05,59.35 37.46,15.41 75.5,29.25 113.77,42.47 27.01,9.33 54.42,17.31 81.63,25.95 51.38,16.3 103.68,29.06 155.98,41.75 36.1,8.76 72.59,16.05 109.09,23.02 34.65,6.62 69.29,13.36 104.29,18.06 24.58,3.3 49.07,7.21 73.61,10.8 8.02,1.17 16.06,2.29 24.11,3.22 10.44,1.21 21.09,1.35 31.34,3.48 20.19,4.17 40.75,4.79 61.09,7.45 14.2,1.86 28.43,3.55 42.79,4.31 19.54,1.05 39.01,3.31 58.51,5.1 4.27,0.39 8.52,1.24 12.79,1.47 9.56,0.51 19.13,0.87 28.7,1.07 7.52,0.16 12.76,-3.67 15.65,-10.41 1.49,-3.47 2.36,-7.25 3.21,-10.95 4.8,-20.93 7.63,-42.21 10.96,-63.4 3.56,-22.62 5.97,-45.41 11.16,-67.76 1.07,-4.59 0.85,-9.54 0.74,-14.31 -0.09,-4.25 -2.66,-7.2 -6.71,-8.33 -4.1,-1.14 -8.18,-2.23 -12.6,-2.34 -19.6,-0.49 -39.18,-1 -58.76,-2.71 -20.47,-1.8 -40.93,-4.49 -61.56,-4.19 -1.9,0.03 -3.81,-0.23 -5.71,-0.45 -13.27,-1.5 -26.53,-3.15 -39.81,-4.52 -19,-1.95 -38.05,-3.47 -57.03,-5.59 -24.19,-2.7 -48.34,-5.77 -72.49,-8.78 -6.14,-0.76 -12.2,-2.36 -18.35,-2.79 -21.98,-1.53 -43.29,-7.25 -65.08,-10.06 -18.88,-2.44 -37.51,-6.79 -56.23,-10.49 -21.03,-4.14 -42.21,-7.79 -63.02,-12.9 -45.78,-11.2 -91.63,-22.09 -136.9,-35.41 -55.8,-16.42 -110.94,-34.72 -165.04,-56.02 -43.93,-17.28 -87.04,-36.47 -129.35,-57.53 -45.37,-22.6 -89.52,-47.27 -132.28,-74.44 -39.18,-24.9 -76.93,-51.81 -113.28,-80.71 -35.29,-28.07 -68.86,-58.02 -100.93,-89.65 -22.18,-21.89 -42.83,-45.18 -63.2,-68.76 -19.44,-22.48 -37.68,-45.86 -55.15,-69.85 -30.43,-41.8 -57.8,-85.54 -81.93,-131.29 -4.9,-9.29 -9.95,-18.51 -14.97,-27.74 -4.28,-7.87 -11.14,-11.51 -19.91,-11.83 -3.83,-0.15 -7.66,-0.16 -11.5,-0.17 -17.26,-0.01 -34.51,0 -51.77,0z"/>
   <path class="fil0" d="M7584.07 16409.95c18.69,0 37.39,-0.1 56.09,0.07 5.34,0.03 10.5,-0.6 15.52,-2.25 4.52,-1.49 6.72,-4.93 6.65,-9.87 -0.1,-6.35 -2.44,-12.18 -4.56,-17.94 -13.45,-36.72 -26.88,-73.4 -43.21,-109.03 -22.95,-50.09 -49.44,-98.1 -79.65,-144.1 -28.43,-43.28 -60,-84.23 -94.68,-122.63 -34.72,-38.45 -71.49,-74.95 -111.06,-108.44 -44.98,-38.05 -92.28,-73.08 -141.9,-104.88 -46.66,-29.92 -94.68,-57.42 -144.26,-82.24 -26.46,-13.25 -53.32,-25.59 -80.36,-37.49 -67.65,-29.75 -136.75,-55.69 -207.41,-77.38 -22.75,-6.99 -45.6,-13.68 -68.49,-20.29 -32.03,-9.24 -64.25,-17.78 -96.73,-25.31 -36.69,-8.51 -73.35,-17.07 -110.42,-23.79 -13.12,-2.37 -26.16,-5.26 -39.27,-7.73 -16.87,-3.17 -33.69,-6.85 -50.7,-9.08 -21.77,-2.85 -43.24,-7.48 -65.11,-9.94 -20.35,-2.28 -40.5,-6.48 -61,-8.11 -9.03,-0.72 -18.05,-1.91 -27,-3.35 -13.67,-2.2 -27.32,-4.46 -41.2,-4.79 -3.84,-0.09 -7.74,-0.03 -11.47,-0.73 -24.96,-4.68 -50.28,-5.8 -75.49,-7.96 -12.86,-1.11 -25.75,-2.06 -38.51,-3.87 -12.87,-1.83 -25.76,-1.6 -38.67,-1.84 -7.71,-0.15 -12.63,3.77 -15.39,10.63 -1.59,3.97 -3.15,8.01 -4.2,12.15 -5.72,22.63 -11.74,45.2 -16.78,67.99 -4.43,20.06 -7.6,40.39 -7.5,61.06 0.02,4.31 -0.06,8.66 0.52,12.91 0.79,5.76 4.3,9.67 10.08,10.69 5.61,0.99 11.32,1.57 17.02,1.9 21.01,1.22 42.06,0.67 63.08,2.94 27.08,2.92 54.32,4.36 81.48,6.53 13.34,1.06 26.68,2.06 39.97,3.57 21.34,2.42 42.65,5.21 63.95,7.88 7.11,0.89 14.2,1.92 21.3,2.85 9.94,1.31 19.93,2.34 29.82,3.96 20.24,3.31 40.43,6.93 60.63,10.41 19.74,3.41 39.54,6.49 59.19,10.29 19.64,3.8 39.2,8.07 58.74,12.41 27.91,6.19 55.68,12.93 83.46,19.66 33.82,8.19 67.04,18.5 100.19,28.92 50.48,15.87 100.22,33.77 149.19,53.86 37.09,15.22 73.66,31.56 109.52,49.42 66.82,33.28 131.09,70.93 191.96,114.24 22.62,16.09 44.91,32.62 66.47,50.13 28.26,22.97 55.44,47.18 81.78,72.35 26.37,25.19 51.04,51.99 74.86,79.54 20.67,23.9 39.83,49.04 58.5,74.54 19.82,27.05 37.94,55.19 54.76,84.15 11.74,20.23 22.85,40.85 33.56,61.66 5.73,11.12 14.29,16.11 26.32,16.27 3.36,0.04 6.71,0.08 10.07,0.08 16.78,-0.01 33.55,-0.02 50.34,-0.02z"/>
   <path class="fil0" d="M6034.21 14426.55l0.02 0c0,-18.7 0.02,-37.4 -0.01,-56.1 -0.01,-3.83 0.05,-7.68 -0.31,-11.49 -0.74,-7.64 -6.67,-11.79 -14.02,-9.58 -10.46,3.14 -20.78,6.74 -31.22,9.96 -42.36,13.09 -82.72,31.16 -122.77,49.87 -15.51,7.25 -30.27,16.14 -45.31,24.37 -6.7,3.66 -13.35,7.41 -19.87,11.36 -26.12,15.84 -51.54,32.76 -76.36,50.56 -24.1,17.3 -47.29,35.77 -69.52,55.37 -18.67,16.46 -36.53,33.86 -54.49,51.11 -18.32,17.6 -35.56,36.28 -52.12,55.5 -25.28,29.33 -49.5,59.52 -72.07,91.04 -30.03,41.93 -58,85.17 -83.37,130.07 -5.4,9.54 -10.39,19.3 -15.82,28.82 -17.01,29.85 -32.16,60.66 -46.47,91.84 -15.47,33.7 -29.87,67.88 -43.6,102.36 -18.3,45.95 -34.55,92.61 -49.6,139.67 -9.99,31.2 -18.88,62.77 -27.85,94.28 -5.46,19.18 -10.45,38.5 -15.09,57.89 -6.85,28.64 -13.34,57.36 -19.7,86.11 -4.31,19.49 -9,38.94 -11.89,58.65 -2.77,18.85 -6.86,37.45 -10.16,56.17 -3.47,19.64 -6.4,39.39 -10.14,58.99 -3.56,18.69 -5.44,37.65 -8.43,56.45 -2.91,18.34 -4.36,36.91 -6.47,55.37 -0.21,1.9 -0.47,3.79 -0.72,5.68 -1.55,11.79 -3.96,23.54 -4.43,35.38 -0.5,12.46 -2.54,24.71 -4.06,36.99 -0.93,7.56 -1.77,15.12 -2.4,22.72 -0.67,8.06 -1.67,16.1 -2.33,24.17 -1.29,15.69 -1.56,31.54 -3.91,47.07 -2.1,13.84 -1.71,27.64 -2.36,41.46 -0.4,8.69 3.14,14.81 11.57,17.54 6.76,2.2 13.71,3.81 20.4,6.2 18.42,6.59 37.57,10.09 56.61,14.11 13.97,2.94 28.06,5.15 42.16,7.33 10.47,1.61 21.04,1.52 31.53,0.84 9.34,-0.61 13.22,-5.38 13.7,-15.03 1.02,-20.52 1.99,-41.05 2.97,-61.57 0.09,-1.92 -0.04,-3.86 0.22,-5.75 2.86,-20.81 4.34,-41.73 5.29,-62.71 0.68,-15.26 1.63,-30.54 3.34,-45.71 2,-17.99 5.05,-35.87 5.56,-54.03 0.03,-0.96 0,-1.94 0.19,-2.86 2.62,-12.61 3.1,-25.53 5.39,-38.16 1.63,-8.96 1.43,-18.15 3.19,-26.96 4.65,-23.35 6.42,-47.15 11.39,-70.39 1.71,-8.01 1.85,-16.09 3.46,-24.03 2.55,-12.57 5.52,-25.1 7.17,-37.79 1.85,-14.21 5.31,-28.03 8.27,-41.97 3.76,-17.65 8.02,-35.2 12.02,-52.8 4.3,-19 7.84,-38.2 12.98,-56.97 10.04,-36.63 20.38,-73.2 31.66,-109.47 11.29,-36.3 24.2,-72.09 37.86,-107.56 13.85,-35.96 28.64,-71.54 45.09,-106.43 16.89,-35.79 34.54,-71.17 53.95,-105.64 22.25,-39.48 45.94,-78.07 72.11,-115.15 22.89,-32.42 46.58,-64.24 72.39,-94.37 23.35,-27.27 47.05,-54.29 73.03,-79.17 10.02,-9.6 20.23,-19.01 30.5,-28.34 12.05,-10.94 24.21,-21.77 36.44,-32.51 6.11,-5.36 12.34,-10.62 18.81,-15.54 17.85,-13.6 35.65,-27.3 53.88,-40.39 25.17,-18.1 51.15,-35.04 78.12,-50.39 16.58,-9.43 33.05,-19.02 49.79,-28.14 10.69,-5.82 16.2,-13.92 15.92,-26.47 -0.44,-20.6 -0.11,-41.22 -0.11,-61.83z"/>
   <path class="fil0" d="M5602.47 17943.2l-0.03 0c0,19.17 -0.01,38.35 0.01,57.54 0,3.36 -0.09,6.73 0.21,10.06 0.63,7.21 5.22,11.32 12.25,11.08 3.82,-0.12 7.46,-0.87 11.18,-2.05 20.38,-6.48 40.5,-13.64 60.65,-20.79 41.33,-14.67 81.12,-32.71 119.77,-53.32 32.85,-17.5 64.72,-36.67 95.28,-57.94 20.79,-14.47 41.03,-29.66 60.69,-45.66 21.55,-17.52 42.88,-35.3 62.63,-54.82 22.14,-21.88 44.52,-43.54 64.81,-67.27 17.1,-20 34.24,-39.97 50.31,-60.81 26.56,-34.4 51.44,-69.98 74.42,-106.93 26.73,-42.95 51.16,-87.16 73.81,-132.37 4.9,-9.78 8.87,-20.04 13.93,-29.74 12.36,-23.68 22.16,-48.52 32.74,-72.97 12.65,-29.21 24.32,-58.93 34.64,-89.04 16.01,-46.72 32.48,-93.33 45.19,-141.13 7.57,-28.46 15.65,-56.76 23.01,-85.27 8.08,-31.31 14.37,-62.98 21.82,-94.41 3.93,-16.63 7.6,-33.34 10.82,-50.13 4.38,-22.89 8.17,-45.88 12.31,-68.8 1.44,-7.99 1.77,-16.22 3.52,-24.02 4.89,-21.87 6.46,-44.25 11.07,-66.11 1.79,-8.48 1.81,-17.08 3.1,-25.52 2.07,-13.65 4.38,-27.24 5.8,-41.01 0.88,-8.5 0.9,-17.29 2.89,-25.51 2.84,-11.71 2.7,-23.67 4.31,-35.43 2,-14.58 4.45,-29.31 3.96,-44.2 -0.05,-1.43 -0.02,-2.89 0.24,-4.3 2.84,-15.97 4.54,-32.07 5.39,-48.27 0.77,-14.78 2.02,-29.53 3.06,-44.3 0.06,-0.94 0.04,-1.93 0.28,-2.85 3.32,-12.2 2.05,-24.71 2.6,-37.1 0.27,-5.88 -2.5,-10.02 -6.89,-13.43 -2.3,-1.79 -4.9,-2.7 -7.66,-3.64 -19.79,-6.8 -39.98,-12.06 -60.32,-16.85 -14.84,-3.5 -29.91,-5.63 -44.93,-7.82 -8.95,-1.3 -18.18,-0.82 -27.28,-0.65 -5.82,0.1 -9.84,3.54 -11.53,9.11 -1.51,5 -2.7,10.02 -2.63,15.42 0.12,10.07 0.56,20.31 -1.11,30.13 -1.37,8.1 -1.08,16.22 -2.42,24.18 -1.44,8.51 -2.05,17.03 -2.55,25.6 -0.82,14.3 -2.05,28.57 -3.12,42.84 -0.03,0.47 0.04,0.98 -0.11,1.43 -3.81,11.48 -1.28,23.82 -4.77,35.34 -0.56,18.13 -3.46,36.02 -5.92,53.96 -2.78,20.27 -4.92,40.6 -8.31,60.82 -2.37,14.05 -3.74,28.3 -6.35,42.34 -0.87,4.67 -2.23,9.3 -2.58,14 -1.08,14.79 -5.3,29.02 -7.28,43.65 -1.72,12.69 -5.26,25.12 -7.04,37.82 -2.53,17.93 -6.93,35.46 -10.74,53.1 -3.93,18.1 -8.58,36.04 -12.6,54.11 -5.57,25.06 -11.73,49.95 -18.77,74.63 -5.73,20.09 -12.42,39.9 -18.08,60.01 -12.76,45.34 -28.81,89.54 -45.45,133.54 -6.22,16.46 -13.5,32.5 -19.89,48.89 -14.04,35.96 -30.96,70.62 -47.84,105.27 -9.38,19.26 -20.43,37.71 -30.53,56.63 -11.24,21.06 -23.52,41.5 -36.4,61.56 -23.74,36.96 -48.43,73.22 -75.31,108.06 -21.65,28.08 -44.46,55.1 -68.6,80.95 -23.54,25.19 -48.05,49.47 -73.81,72.5 -20.36,18.2 -41.2,35.79 -62.74,52.48 -43.45,33.65 -89.21,63.86 -137.55,90.07 -13.41,7.26 -26.77,14.61 -40.29,21.65 -6.67,3.46 -12.01,8.03 -14.11,15.34 -1.02,3.59 -1.09,7.55 -1.1,11.33 -0.12,19.71 -0.06,39.36 -0.06,59.02z"/>
   <path class="fil0" d="M8428.39 17218.67c50.96,1.52 101.7,-0.6 152.37,-3.37 14.29,-0.78 28.62,-1.81 42.91,-2.88 0.48,-0.04 0.97,0.02 1.44,-0.06 18.25,-3.44 36.82,-4.43 55.14,-7.53 20.21,-3.41 40.11,-7.69 59.38,-14.67 31.1,-11.27 54.01,-31.52 68.29,-61.64 9.76,-20.59 14.36,-42.37 16.14,-64.79 0.98,-12.39 0.46,-24.91 0.32,-37.37 -0.19,-15.89 -3.55,-31.31 -8.96,-46.12 -8.84,-24.13 -24.1,-43.31 -46.54,-56.28 -9.48,-5.48 -19.61,-9.56 -30.14,-12.71 -29.32,-8.76 -59.51,-12.88 -89.68,-16.97 -16.53,-2.21 -33.15,-3.79 -49.78,-5.21 -14.75,-1.26 -29.56,-1.65 -44.33,-2.75 -27.67,-2.04 -55.44,-2.55 -83.17,-3.59 -17.68,-0.66 -35.34,-0.87 -53.04,-1.97 -24.8,-1.56 -49.69,-2.01 -74.5,-3.97 -13.33,-1.05 -26.84,-1.22 -39.92,-3.63 -8.37,-1.55 -16.91,-2.06 -25.29,-4.31 -12.38,-3.32 -20.38,-10.45 -24.01,-22.18 -4.4,-14.17 -6.34,-28.59 -3.57,-43.62 2.53,-13.74 9.44,-23.7 21.32,-30.56 4.13,-2.38 8.42,-4.28 13.06,-5.62 11.03,-3.2 22.38,-4.37 33.61,-6.35 15.59,-2.76 31.5,-1.18 46.96,-4.54 56.49,-0.19 113,-2.89 169.46,2 10.02,0.87 19.92,2.28 29.81,3.79 18.52,2.83 31.31,13.08 37.59,31.04 2.85,8.14 5.37,16.33 5.65,25.02 0.14,4.34 0.85,8.52 2.38,12.62 0.82,2.16 2.11,2.97 4.16,3.02 2.4,0.05 4.8,0.05 7.19,0.05 56.09,0 112.17,0 168.26,0 2.39,0 4.8,-0.01 7.18,-0.1 2.15,-0.09 3.66,-1.05 3.65,-3.4 -0.06,-13.9 0.13,-27.81 -0.35,-41.69 -0.49,-13.95 -4.18,-27.32 -9.48,-40.16 -11.12,-26.87 -30.76,-45.71 -56.6,-58.33 -26.39,-12.89 -54.91,-18.29 -83.58,-22.72 -10.81,-1.68 -21.87,-2.42 -32.62,-4.12 -14.7,-2.31 -29.67,-0.7 -44.14,-4.32 -32.55,-0.43 -64.97,-3.95 -97.57,-3.45 -20.6,0.32 -41.22,-0.2 -61.83,0.03 -29.66,0.32 -59.34,-0.56 -88.97,2.21 -17.6,1.64 -35.32,1.12 -52.99,3 -18.02,1.91 -36.04,3.53 -54.04,5.73 -17.55,2.14 -34.79,5.54 -51.94,9.37 -17.21,3.84 -33.94,9.32 -49.55,17.75 -25.76,13.91 -44.34,34.34 -55.54,61.45 -6.81,16.51 -9.71,33.93 -11.08,51.51 -1.68,21.52 0.06,42.94 5.13,64.01 5.98,24.84 17.66,46.18 37.36,62.93 14.17,12.06 30.88,18.61 48.34,23.73 16.44,4.85 33.32,7.78 50.11,10.98 9.81,1.88 19.96,1.91 29.75,3.85 10.4,2.07 20.95,1.79 31.32,3.29 7.11,1.04 14.19,1.73 21.34,2.23 7.59,0.54 15.16,1.63 22.75,2.19 14.28,1.06 28.6,1.19 42.89,2.52 22.36,2.06 44.9,1.69 67.35,2.91 40.14,2.18 80.37,2.73 120.56,3.97 2.87,0.09 5.77,0.11 8.62,0.44 13.71,1.61 27.38,3.51 41.11,4.93 8.6,0.89 16.79,3.21 25.02,5.66 16.22,4.84 23.78,16.33 26.27,32.32 1.75,11.41 1.05,22.77 -0.38,34.04 -1.21,9.48 -4.08,18.62 -9.91,26.48 -7.23,9.72 -17.38,14.44 -28.87,17.15 -22.38,5.27 -45.22,6.79 -68.02,8.29 -15.29,1.01 -30.67,0.73 -46.01,0.77 -54.11,0.13 -108.25,0.88 -162.23,-3.62 -13.27,-1.11 -26.55,-3.09 -39.55,-5.9 -14.48,-3.14 -24.55,-11.95 -29.12,-26.63 -2.42,-7.76 -4.63,-15.49 -4.92,-23.66 -0.24,-6.7 -0.32,-13.41 -0.62,-20.11 -0.11,-2.35 -0.5,-4.72 -1.05,-7 -0.93,-4 -2.01,-4.85 -5.73,-4.97 -1.44,-0.05 -2.88,0 -4.32,0l-162.51 0c-1.92,0 -3.86,-0.19 -5.76,-0.01 -4.97,0.47 -12.29,7.51 -12.38,12.3 -0.39,22.5 0.26,45.04 6.38,66.82 6.01,21.43 16.47,40.57 32.79,56.27 15.12,14.58 33.06,24.03 52.77,30.55 26.78,8.86 54.53,13.14 82.34,16.87 18.88,2.53 37.92,4.28 56.95,5.49 24.82,1.57 49.68,2.67 74.54,3.2 24.94,0.52 49.87,0.1 74.63,0.1z"/>
   <path class="fil0" d="M7278.2 16410.21l0 -0.25 74.79 0c4.31,0 8.52,-0.26 12.72,-1.7 6.84,-2.35 9.65,-7.36 7.1,-14.34 -2.29,-6.28 -4.63,-12.57 -7.52,-18.58 -14.05,-29.35 -29.92,-57.64 -48.96,-84.13 -19.87,-27.64 -41.4,-53.94 -64.79,-78.65 -14.16,-14.94 -29.29,-28.98 -44.2,-43.18 -35.47,-33.74 -74.08,-63.66 -114.02,-91.8 -55.55,-39.13 -114.03,-73.43 -174.5,-104.42 -44.17,-22.63 -89.39,-42.93 -135.25,-61.84 -37.9,-15.62 -76.44,-29.51 -115.06,-43.17 -30.98,-10.96 -62.62,-19.77 -94.01,-29.4 -13.66,-4.19 -27.38,-8.28 -41.25,-11.65 -51.85,-12.56 -103.3,-26.82 -155.75,-36.8 -11.71,-2.22 -23.38,-4.59 -35.11,-6.64 -18.8,-3.3 -37.75,-5.84 -56.42,-9.72 -22.45,-4.67 -45.16,-7.36 -67.77,-10.82 -9.9,-1.52 -19.93,-2.25 -29.86,-3.57 -9.93,-1.33 -19.77,-3.29 -29.72,-4.39 -20.89,-2.32 -41.83,-4.22 -62.74,-6.39 -5.68,-0.59 -11.3,-1.78 -17,-2.25 -11.9,-1 -23.84,-1.12 -35.75,-2.53 -20.39,-2.43 -40.89,-3.92 -61.35,-5.67 -4.29,-0.36 -8.66,-0.44 -12.94,-0.06 -9.48,0.84 -14.72,6.16 -15.14,15.77 -0.44,9.57 -0.61,19.18 -0.25,28.75 0.85,22.58 -2.69,44.9 -3.4,67.37 -0.06,1.89 -0.6,3.77 -0.95,5.64 -2.18,11.71 -4.51,23.4 -6.46,35.14 -0.7,4.23 -0.74,8.6 -0.62,12.89 0.14,4.88 2.77,8.03 7.7,8.99 5.12,0.99 10.21,2.1 15.56,2.12 22.06,0.09 44.11,0.59 66.15,0.97 4.32,0.07 8.64,0.18 12.94,0.5 21.43,1.58 42.86,3.29 64.3,4.86 17.17,1.25 34.35,2.37 51.53,3.56 0.96,0.06 1.92,0.07 2.87,0.19 27.43,3.66 54.87,7.25 82.28,11.02 9.92,1.35 19.78,3.09 29.66,4.66 12.71,2.03 25.43,4 38.13,6.1 19.77,3.27 39.65,6.04 59.26,10.11 27.97,5.82 55.72,12.71 83.59,18.99 48.36,10.92 95.88,24.78 143.14,39.68 64.19,20.25 126.87,44.38 187.99,72.51 43.8,20.15 86.74,42.07 127.98,67.05 53.73,32.52 104.73,68.81 151.22,111.29 32.67,29.85 62.49,62.11 88.63,97.78 8.2,11.19 16.01,22.67 23.68,34.23 4.62,6.98 11.32,10.09 19.05,11.38 3.74,0.64 7.64,0.39 11.48,0.4 23.01,0.01 46.02,0 69.04,0z"/>
   <path class="fil0" d="M4372.36 15961.87c-23.48,0 -46.97,-0.02 -70.46,0.03 -4.31,0 -8.73,-0.32 -12.9,0.54 -7.73,1.57 -10.9,6.37 -9.7,13.33 0.56,3.24 1.63,6.48 2.96,9.51 5.93,13.55 12.36,26.83 19.49,39.83 28.52,52.01 64.9,98.05 105.79,140.7 28.22,29.43 58.58,56.49 90.19,82.25 37.5,30.57 77.01,58.32 117.78,84.24 60.94,38.73 124.83,72.13 190.45,102.19 50.7,23.23 102.53,43.7 155.03,62.53 29.16,10.44 58.72,19.65 88.3,28.79 15.93,4.91 31.84,9.89 47.92,14.28 28.03,7.66 56.1,15.2 84.3,22.19 27.28,6.76 54.64,13.22 82.32,18.29 17.81,3.26 35.49,7.22 53.28,10.61 21.07,4.01 42.13,8.23 63.33,11.47 24.53,3.77 49.2,6.57 73.81,9.8 8.99,1.18 17.98,2.45 26.97,3.61 11.83,1.52 23.66,3.05 35.5,4.44 3.8,0.45 7.71,0.13 11.47,0.77 24.99,4.23 50.25,5.66 75.45,7.78 17.6,1.47 35.16,3.44 52.76,4.89 5.65,0.47 11.3,0.61 17.06,-0.95 6.8,-1.86 10.84,-5.68 12.36,-12.34 1.59,-6.97 3.17,-13.96 4.48,-20.99 3.34,-17.85 5.18,-35.9 6.46,-54.01 0.71,-10.02 0.88,-20.1 1.01,-30.16 0.19,-13.89 0.44,-27.81 0.05,-41.69 -0.33,-11.67 -5.09,-16 -17,-16.68 -4.78,-0.27 -9.58,-0.11 -14.38,-0.18 -18.69,-0.35 -37.39,-0.28 -56.06,-1.2 -20.98,-1.05 -41.92,-3.09 -62.89,-4.55 -19.08,-1.32 -38.17,-2.44 -57.26,-3.65 -1.43,-0.09 -2.85,-0.29 -4.27,-0.46 -12.32,-1.49 -24.63,-3.05 -36.96,-4.5 -18.95,-2.24 -37.98,-3.95 -56.84,-6.86 -7.58,-1.16 -15.22,-1.45 -22.75,-2.75 -26.78,-4.61 -53.58,-9.11 -80.26,-14.24 -28.08,-5.39 -56.25,-10.52 -83.97,-17.43 -45.28,-11.3 -90.55,-22.72 -135.13,-36.67 -55.51,-17.37 -110.2,-36.91 -163.59,-59.97 -34.15,-14.74 -68.09,-29.89 -100.91,-47.52 -26.94,-14.46 -53.72,-29.17 -79.63,-45.39 -44.26,-27.71 -86.37,-58.29 -125.69,-92.78 -40.88,-35.85 -77.73,-75.2 -108.75,-119.92 -6,-8.65 -12.06,-17.26 -17.9,-26.01 -4.63,-6.94 -11.33,-10.04 -19.26,-10.86 -3.79,-0.39 -7.65,-0.26 -11.49,-0.27 -23.5,-0.04 -46.98,-0.02 -70.47,-0.04z"/>
   <path class="fil0" d="M7560.2 17218.48c38.3,-0.36 76.62,1.58 114.9,-1.88 17.58,-1.6 35.34,-0.58 52.97,-3.02 10.36,-1.44 20.89,-1.52 31.36,-2.7 15.16,-1.71 30.23,-3.83 45.33,-5.96 18.44,-2.62 36.47,-6.78 54.18,-12.24 21.3,-6.58 40.14,-17.43 55.52,-34.01 16.7,-18.04 26.17,-39.64 32.46,-62.99 6.81,-25.29 6.4,-51.14 6.27,-76.96 -0.03,-7.01 -5.72,-12.28 -12.85,-12.53 -2.4,-0.08 -4.8,-0.02 -7.2,-0.02l-155.35 0c-2.88,0 -5.76,0.11 -8.63,-0.02 -3.15,-0.14 -5.3,1.39 -7.51,3.46 -3.39,3.18 -4.79,6.67 -4.6,11.44 0.4,10.53 1.11,21.17 0.04,31.6 -2.68,26.1 -17.12,42.45 -39.89,48.55 -11.04,2.95 -22.3,4.64 -33.58,6.42 -17.99,2.84 -36.14,4 -54.18,4.67 -47.92,1.81 -95.88,1.32 -143.83,0.27 -4.32,-0.09 -8.64,-0.14 -12.93,-0.59 -15.17,-1.57 -30.34,-3.28 -45.5,-4.97 -14.23,-1.59 -28.12,-4.84 -41.77,-9.04 -14.62,-4.49 -24.85,-13.74 -29.44,-28.67 -1.4,-4.55 -3.21,-9 -4.28,-13.62 -3.04,-13.01 -4.94,-26.21 -6.87,-39.44 -2.42,-16.61 -3.1,-33.32 -4.04,-49.92 -1.44,-25.83 -0.67,-51.76 -0.73,-77.66 -0.04,-20.14 2.8,-40.04 6.29,-59.79 1.82,-10.26 5.2,-20.28 9.64,-29.83 5.07,-10.92 13.04,-18.74 24.64,-22.47 4.53,-1.45 9.13,-2.66 13.74,-3.8 12.96,-3.23 26.13,-4.96 39.39,-6.6 8.56,-1.06 17.1,-1.52 25.64,-2.21 9.03,-0.72 18.06,-2.17 27.09,-2.23 57.95,-0.37 115.91,-2.68 173.83,2.11 15.74,1.3 31.28,3.48 46.68,6.57 19.36,3.9 32.71,15.28 37.9,34.75 2.08,7.8 4.03,15.75 3.66,24.01 -0.21,4.31 -0.15,8.63 0,12.95 0.24,6.87 6.85,13.36 13.86,13.7 1.91,0.11 3.84,0.03 5.75,0.03l156.79 0c2.4,0 4.82,0.2 7.19,-0.03 6.54,-0.63 12.48,-6.91 12.52,-13.47 0.15,-25.41 -1.42,-50.62 -9.14,-75.1 -9.87,-31.3 -27.86,-56.16 -56.39,-73.13 -11.58,-6.88 -23.97,-11.74 -36.71,-15.56 -18.67,-5.58 -37.75,-9.35 -57.05,-12.44 -19.81,-3.17 -39.73,-4.94 -59.59,-7.04 -19.96,-2.12 -40.1,-2.6 -60.19,-3.32 -15.8,-0.56 -31.63,-0.51 -47.45,-0.52 -28.3,-0.02 -56.59,-0.24 -84.87,0.3 -28.23,0.56 -56.5,1.27 -84.64,3.26 -15.27,1.08 -30.55,1.89 -45.82,2.91 -0.48,0.03 -0.97,-0.01 -1.44,0.05 -12.29,1.58 -24.54,3.46 -36.86,4.68 -18.99,1.91 -37.74,5.06 -56.49,8.56 -21.59,4.04 -42.65,9.67 -63.11,17.51 -35.35,13.58 -62.13,36.98 -79.79,70.54 -14.24,27.02 -21.63,56.19 -23.04,86.41 -1.84,39.7 -1.66,79.46 1.68,119.17 1.64,19.53 3.57,38.98 6.16,58.4 3.48,26.09 9.41,51.56 18.1,76.34 5.37,15.33 12.44,29.91 22.29,43.06 7.84,10.47 16.91,19.46 28.1,26.3 15.18,9.26 31.72,15.21 48.64,20.26 28.84,8.62 58.57,12.84 88.28,16.84 18.89,2.54 37.94,4.13 56.97,5.45 21.47,1.48 42.98,2.68 64.49,3.09 27.79,0.51 55.61,0.12 83.41,0.12z"/>
   <path class="fil0" d="M5602.32 17638.92c0,24.93 -0.01,49.87 0.02,74.8 0,3.83 -0.12,7.72 0.49,11.48 0.96,5.89 7.19,9.44 13.04,7.62 4.08,-1.28 8.07,-2.85 12.02,-4.5 28.22,-11.83 54.67,-27.01 80,-44.02 34.62,-23.24 66.83,-49.55 96.47,-78.91 19.4,-19.22 38.64,-38.56 56.59,-59.21 19.17,-22.04 37.53,-44.67 54.9,-68.1 19.61,-26.46 37.86,-53.85 55.42,-81.75 18.05,-28.69 35.13,-57.91 50.81,-87.92 24.27,-46.44 47.17,-93.52 66.98,-142.11 11.84,-29.07 23.52,-58.17 34.04,-87.75 17.52,-49.25 33.48,-99 47.1,-149.47 6.31,-23.37 13.3,-46.61 18.41,-70.26 6.13,-28.33 13.26,-56.42 18.95,-84.85 3.54,-17.7 6.55,-35.51 10.11,-53.21 2.8,-13.98 3.71,-28.35 6.67,-42.3 3.56,-16.8 4.79,-33.91 8.17,-50.69 1.9,-9.39 2.07,-18.98 3.78,-28.3 2.07,-11.27 2.05,-22.76 4.59,-33.94 1.47,-6.47 2.17,-13.16 2.69,-19.79 0.81,-10.45 1.24,-20.89 2.56,-31.35 2.56,-20.32 3.96,-40.8 5.81,-61.21 1.89,-20.94 2.33,-42 3.47,-63 0.49,-9.04 0.13,-18.08 2.07,-27.1 1.29,-5.97 0.77,-12.42 0.51,-18.63 -0.38,-8.9 -4.52,-15.48 -13.26,-18.47 -4.93,-1.68 -9.9,-3.37 -14.97,-4.51 -18.13,-4.11 -36.8,-4.96 -54.95,-8.76 -10.27,-2.14 -20.74,-2.46 -31.02,-4.77 -9.72,-2.18 -19.53,-4.12 -29.33,-6.03 -9.3,-1.82 -14.98,3.25 -16.73,11.46 -0.4,1.86 -0.27,3.83 -0.36,5.73 -0.58,12.4 -0.84,24.77 -2.2,37.17 -2.14,19.45 -2.53,39.09 -3.75,58.64 -0.97,15.24 -2.08,30.49 -3.14,45.73 -0.06,0.95 -0.09,1.92 -0.34,2.83 -3.33,12.04 -2.64,24.57 -4.56,36.81 -2.05,13.18 -2.53,26.6 -3.71,39.91 -0.12,1.42 -0.35,2.84 -0.63,4.24 -2.29,11.68 -4.44,23.38 -5,35.32 -0.15,3.31 -0.93,6.58 -1.45,9.87 -1.41,8.93 -2.92,17.84 -4.22,26.78 -1.17,8.02 -1.82,16.12 -3.24,24.08 -2.33,13.1 -5.48,26.04 -7.58,39.16 -3.47,21.61 -7.28,43.14 -12,64.51 -6.05,27.36 -11.78,54.82 -18.36,82.06 -8.25,34.16 -17.36,68.1 -27.78,101.68 -7.05,22.68 -13.06,45.74 -21.18,68.02 -14.32,39.3 -27.49,79.04 -44.68,117.25 -8.2,18.22 -15.31,36.95 -23.92,54.96 -15.84,33.11 -32.34,65.88 -50.95,97.58 -16.93,28.82 -34.64,57.06 -53.88,84.42 -22.05,31.35 -46.04,61.07 -72.34,88.93 -33.63,35.61 -70.19,67.76 -111.64,94.1 -3.22,2.05 -6.4,4.17 -9.36,6.57 -5.88,4.77 -9.18,10.88 -9.05,18.65 0.05,3.35 -0.08,6.7 -0.09,10.07 0,23.5 0,46.99 0,70.48z"/>
   <path class="fil0" d="M6034.22 14733.71l0.02 0c0,-24.92 0.01,-49.85 -0.02,-74.78 -0.01,-3.83 0.1,-7.7 -0.44,-11.48 -0.83,-5.85 -7,-9.96 -12.75,-8.66 -2.76,0.62 -5.5,1.6 -8.06,2.81 -29.78,14.13 -58.29,30.39 -85.06,49.73 -18.24,13.17 -35.65,27.36 -52.66,42 -14.13,12.18 -27.92,24.86 -40.94,38.2 -14.36,14.7 -27.6,30.5 -41.45,45.7 -22.89,25.14 -43.36,52.24 -63.43,79.59 -17.21,23.46 -32.88,47.99 -48.55,72.52 -21.05,32.99 -40.11,67.09 -58.38,101.64 -13.14,24.84 -25.62,50.01 -37.37,75.57 -11.52,25.08 -22.35,50.44 -33.14,75.84 -17.49,41.16 -32.1,83.38 -47.06,125.46 -7.63,21.46 -13.74,43.45 -20.36,65.26 -4.97,16.35 -9.97,32.71 -14.41,49.2 -6.68,24.75 -12.95,49.62 -19.25,74.47 -3.38,13.34 -6.62,26.73 -9.64,40.17 -4.37,19.46 -8.62,38.95 -12.45,58.54 -3.73,19.13 -7.01,38.33 -10.62,57.47 -1.42,7.47 -1.77,15.19 -3.64,22.53 -5.05,19.88 -6.11,40.41 -10.5,60.38 -2.77,12.57 -3.47,25.46 -5.16,38.17 -2.76,20.77 -6.17,41.52 -6.79,62.54 -0.05,1.43 0.01,2.89 -0.23,4.3 -2.8,16.94 -5.2,33.92 -5.61,51.12 -0.03,1.43 0.25,2.99 -0.21,4.29 -2.93,8.37 -1.44,17.1 -2.33,25.62 -0.94,9 -1.87,18.01 -2.81,27 -0.64,6.16 -0.65,12.29 -1.9,18.48 -1.39,6.93 -1.1,14.37 -0.49,21.49 0.68,8.12 4.45,14.55 13.31,16.48 3.7,0.8 7.35,1.96 11.08,2.61 13.6,2.34 27.04,5.69 40.89,6.38 7.21,3.21 15.12,1.7 22.58,3.36 7.88,1.75 15.82,3.41 23.82,4.45 10.39,1.33 20.72,2.8 30.87,5.44 5.06,1.32 10.27,2.04 15.44,2.83 10.32,1.57 16.79,-3.55 17.31,-13.82 0.86,-16.69 1.63,-33.38 2.31,-50.08 0.64,-15.73 -0.34,-31.48 2.18,-47.22 1.58,-9.85 0.58,-20.09 1.16,-30.14 0.6,-10.46 1.95,-20.89 2.52,-31.35 0.87,-16.22 3.65,-32.3 3.36,-48.59 -0.03,-1.41 0.31,-2.84 0.55,-4.24 2.18,-13.16 4.52,-26.29 5.03,-39.65 0.11,-2.87 0.16,-5.76 0.58,-8.59 1.6,-10.82 3.35,-21.6 5.06,-32.4 0.81,-5.16 1.81,-10.3 2.45,-15.49 0.7,-5.65 1.14,-11.27 2.37,-16.94 2.82,-12.99 4.31,-26.28 6.37,-39.43 2.21,-14.11 3.93,-28.31 6.82,-42.28 6.09,-29.28 12.59,-58.49 19.33,-87.63 10.06,-43.49 21.47,-86.63 34.38,-129.38 14.02,-46.42 29.66,-92.29 47.2,-137.45 16.72,-43.01 35.25,-85.28 55.81,-126.66 13.16,-26.49 27.35,-52.41 42.28,-77.88 21.5,-36.64 44.73,-72.22 70.99,-105.66 14.76,-18.8 30.22,-37.08 46.12,-54.92 15.62,-17.51 32.47,-33.85 50.37,-49.13 18.91,-16.14 37.96,-32.02 59.08,-45.26 5.29,-3.31 9.71,-7.64 12.33,-13.64 2.02,-4.61 1.68,-9.38 1.7,-14.12 0.08,-24.93 0.04,-49.85 0.04,-74.77z"/>
   <path class="fil0" d="M5602.32 17291.99c0,10.55 0,21.09 0,31.64 0,23 -0.04,46.02 0.04,69.04 0.02,3.79 0.24,7.65 0.98,11.36 0.75,3.81 5.71,5.87 9.23,4.22 4.39,-2.05 8.05,-5.07 11.41,-8.55 12.63,-13.1 25.68,-25.75 37.75,-39.43 18.38,-20.84 35.7,-42.51 51.7,-65.14 28.38,-40.15 53.38,-82.43 76,-126.1 13.15,-25.38 25.03,-51.35 36.64,-77.48 16.43,-36.96 30.7,-74.75 44.49,-112.75 10.21,-28.15 19.13,-56.71 28,-85.29 7.74,-24.96 15.41,-49.94 21.69,-75.3 5.7,-23.04 11.44,-46.08 16.85,-69.21 5.95,-25.45 11.84,-50.88 16.48,-76.61 2.45,-13.55 5.39,-27.01 8.02,-40.53 1.99,-10.26 4.14,-20.51 5.72,-30.84 2.5,-16.45 6.09,-32.73 8.24,-49.21 2.22,-17 6.17,-33.77 6.84,-50.97 0.08,-1.9 0.42,-3.79 0.71,-5.67 1.46,-9.39 3.33,-18.74 4.33,-28.18 1.49,-14.24 2.4,-28.54 3.54,-42.81 0.16,-1.91 -0.12,-3.95 0.45,-5.71 3.31,-10.1 1.43,-20.95 4.64,-31.03 -0.15,-15.81 2.1,-31.44 3.2,-47.16 0.43,-6.16 -0.03,-12.34 2.09,-18.46 1.19,-3.45 0.78,-7.64 0.38,-11.42 -0.86,-7.94 -5.13,-11.9 -13.13,-12.37 -11.9,-0.7 -23.82,-1.32 -35.74,-1.71 -13.41,-0.45 -26.86,-0.25 -40.25,-1.03 -10.93,-0.64 -21.86,-1.95 -32.69,-3.62 -13.14,-2.02 -26.17,-4.83 -39.27,-7.1 -5.95,-1.04 -11.87,2.37 -13.71,7.91 -1.19,3.59 -2.3,7.38 -2.43,11.12 -0.6,18.15 -1.37,36.26 -3.02,54.38 -1.85,20.45 -2.52,41.02 -3.73,61.53 -0.08,1.42 -0.32,2.84 -0.48,4.25 -1.62,13.72 -3.4,27.41 -4.79,41.14 -1.3,12.82 -2.19,25.67 -3.26,38.52 -0.08,0.95 -0.09,1.92 -0.29,2.85 -2.85,13.06 -4.72,26.25 -5.34,39.6 -0.09,1.91 0.01,3.87 -0.36,5.74 -2.52,12.61 -4.46,25.28 -5.84,38.09 -0.81,7.55 -1.27,15.29 -2.95,22.63 -3.51,15.36 -4.54,31.06 -7.65,46.45 -2.92,14.43 -5.2,29 -8,43.46 -1.89,9.79 -4.17,19.51 -6.29,29.26 -5.24,24.13 -10.24,48.34 -15.79,72.41 -8.12,35.17 -18.69,69.7 -29.23,104.22 -7.92,25.92 -17.2,51.35 -27.08,76.59 -11.29,28.81 -23.21,57.31 -36.65,85.18 -16.37,33.97 -35.45,66.42 -55.47,98.32 -3.69,5.87 -6.09,11.8 -5.91,18.77 0.11,4.3 -0.07,8.62 -0.07,12.93 -0.01,30.69 0,61.38 0,92.07z"/>
   <path class="fil0" d="M4719.86 15962l0 -0.13c-32.12,0 -64.25,-0.01 -96.37,0.02 -4.3,0 -8.65,-0.08 -12.91,0.45 -6.54,0.83 -9.2,7.46 -5.33,13.01 1.63,2.34 3.65,4.44 5.63,6.51 29.22,30.51 60.7,58.46 94.61,83.69 26.11,19.43 53.2,37.34 81.06,54.15 53.22,32.09 108.75,59.58 165.83,84.05 56.09,24.06 113.56,44.36 171.7,62.79 49.52,15.7 99.85,28.52 150.46,40.17 23.21,5.34 46.67,9.59 70.02,14.32 9.34,1.88 18.65,3.89 28.02,5.56 15.48,2.77 31,5.38 46.52,7.93 14.12,2.32 28.25,4.66 42.43,6.62 11.35,1.57 22.83,2.24 34.17,3.91 16.07,2.37 32.13,4.69 48.38,5.4 2.87,0.13 5.72,0.5 8.57,0.83 11.85,1.38 23.67,3.21 35.56,4.06 21,1.51 42.04,2.45 63.06,3.62 2.87,0.15 5.85,-0.16 8.6,0.47 11.82,2.69 23.82,1.82 35.75,2.31 0.96,0.03 1.92,0.04 2.88,-0.01 10.77,-0.48 15.31,-4.98 16.04,-16.07 0.22,-3.34 0.15,-6.7 0.15,-10.06 0,-18.23 -0.01,-36.44 -0.01,-54.66 -0.01,-23.49 0,-46.98 -0.05,-70.47 -0.01,-4.31 0.12,-8.68 -0.59,-12.9 -1.18,-7.04 -5.26,-10.68 -12.57,-11.72 -5.18,-0.74 -10.42,-1.48 -15.63,-1.49 -34,-0.08 -68,-0.12 -101.91,-3.27 -12.36,-1.14 -24.79,-1.49 -37.18,-2.48 -20.01,-1.61 -39.93,-3.77 -59.88,-5.95 -18.52,-2.02 -37.05,-3.9 -55.49,-6.6 -9.91,-1.44 -19.89,-2.46 -29.79,-4.02 -14.59,-2.29 -29.14,-4.91 -43.71,-7.36 -14.12,-2.38 -28.31,-4.37 -42.35,-7.15 -27.56,-5.47 -54.93,-11.88 -82.18,-18.76 -33.71,-8.5 -67.4,-17.07 -100.46,-27.87 -37.6,-12.27 -74.82,-25.43 -111.5,-40.39 -59.44,-24.24 -116.22,-53.33 -170.08,-88.15 -10.81,-6.98 -22.19,-10.54 -35.08,-10.45 -32.13,0.26 -64.25,0.09 -96.37,0.09z"/>
   <path class="fil0" d="M6926.08 16409.87l0 0.24c28.78,0 57.55,0.01 86.31,-0.01 3.83,0 7.67,-0.24 11.5,-0.15 3.11,0.07 5.5,-1.39 7.77,-3.17 2.45,-1.89 2.91,-4.73 1.8,-7.59 -1.61,-4.14 -4.53,-7.28 -7.37,-10.52 -14.88,-16.92 -30.59,-32.98 -47.37,-48.08 -23.16,-20.86 -47.53,-40.13 -73.01,-58.05 -42.3,-29.74 -86.57,-56.08 -132.83,-79.22 -32.87,-16.45 -66.12,-32.04 -100.11,-45.97 -47.19,-19.36 -95.13,-36.69 -143.9,-51.74 -30.51,-9.42 -61.24,-17.98 -92.13,-26.07 -27.66,-7.24 -55.5,-13.68 -83.41,-19.84 -18.15,-4.01 -36.37,-7.76 -54.67,-11.04 -20.64,-3.69 -41.5,-6.2 -62.08,-10.19 -22.52,-4.37 -45.35,-6.55 -67.87,-10.64 -11.38,-2.07 -22.91,-1.82 -34.21,-3.58 -22.2,-3.46 -44.58,-5.1 -66.9,-7.2 -21.9,-2.06 -43.94,-2.63 -65.93,-3.89 -2.85,-0.17 -5.71,-0.47 -8.54,-0.89 -14.27,-2.11 -28.65,-1.59 -42.99,-1.59 -5.39,0 -9.04,3.16 -10.98,7.9 -1.82,4.41 -2.64,9.1 -2.57,13.98 0.21,15.84 -2.19,31.46 -4.3,47.08 -1.27,9.44 -3.07,18.8 -4.26,28.24 -1.98,15.62 -3.78,31.27 -5.4,46.93 -0.54,5.22 -0.58,10.55 -0.39,15.81 0.36,9.97 5.13,14.99 14.88,15.69 5.25,0.38 10.54,0.4 15.81,0.29 33.54,-0.73 66.99,1.79 100.49,2.79 2.39,0.07 4.79,0.16 7.18,0.37 16.16,1.49 32.3,3.93 48.49,4.31 24.95,0.58 49.41,5.37 74.19,7.3 7.57,0.59 15.23,1.35 22.79,2.4 19.37,2.69 38.71,5.59 58.06,8.47 13.68,2.03 27.44,3.73 41.01,6.37 27.6,5.36 55.25,10.61 82.6,17.09 47.73,11.26 95.24,23.44 141.96,38.59 48.56,15.76 96.15,33.79 142.66,54.88 44.48,20.15 87.37,43.06 128.14,69.87 11.21,7.38 23.11,10.93 36.41,10.87 29.72,-0.14 59.45,-0.04 89.17,-0.04z"/>
   <path class="fil0" d="M6034.13 15080.3l0.01 0 0 -21.57c0,-26.37 0.04,-52.73 -0.03,-79.1 -0.01,-3.8 -0.23,-7.66 -0.97,-11.37 -0.76,-3.82 -6.13,-5.84 -9.26,-3.65 -2.74,1.91 -5.32,4.09 -7.73,6.4 -20.85,19.86 -39.36,41.81 -56.93,64.55 -17.8,23.06 -34.52,46.87 -49.94,71.62 -15.13,24.29 -29.46,49.04 -42.95,74.26 -21.57,40.34 -40.73,81.79 -58.37,124 -14.3,34.24 -27.15,68.99 -39.8,103.84 -10.37,28.58 -18.73,57.82 -27.41,86.93 -4.07,13.65 -8.11,27.31 -11.67,41.1 -6.63,25.74 -13,51.55 -19.3,77.39 -4.16,17.06 -8.48,34.11 -11.87,51.34 -5.31,27.04 -9.96,54.21 -14.76,81.35 -1.57,8.9 -2.68,17.88 -4.13,26.8 -1.52,9.38 -2.79,18.83 -4.91,28.08 -2.16,9.38 -1.75,19 -3.47,28.35 -2.42,13.13 -4.5,26.23 -5.37,39.59 -0.69,10.44 -1.88,20.92 -3.24,31.28 -0.87,6.6 -1.47,13.23 -2.17,19.86 -0.7,6.61 -1.89,13.2 -2.31,19.84 -1.35,21.46 -2.45,42.94 -3.64,64.42 -0.07,1.43 0.09,2.92 -0.22,4.3 -3.34,15.11 -2.14,30.48 -2.6,45.75 -0.06,1.91 0.15,3.83 0.18,5.74 0.09,5.43 2.96,8.63 7.76,10.94 3.7,1.78 7.43,1.62 11.21,1.69 10.55,0.2 21.24,-0.76 31.6,0.68 10.01,1.39 19.96,1.92 29.97,2.03 13.41,0.13 26.52,2.14 39.64,4.87 9.3,1.95 18.84,2.92 28.32,3.76 6.21,0.54 8.77,-1.86 9.94,-7.74 1.59,-7.95 2.84,-15.93 2.75,-24.09 -0.06,-5.75 -0.72,-11.76 0.68,-17.19 2.1,-8.06 1.43,-16.16 2.22,-24.22 0.81,-8.05 1.82,-16.09 2.35,-24.16 0.85,-13.33 1.12,-26.66 2.46,-40 2.03,-20.39 3.99,-40.8 5.95,-61.2 1.63,-17.07 3.68,-34.07 5.73,-51.1 1.98,-16.54 4.01,-33.07 6.44,-49.56 1.32,-8.95 2.86,-17.85 3.75,-26.88 1.03,-10.37 2.53,-20.85 5.33,-30.86 2.6,-9.29 1.94,-18.87 4.61,-28.16 3,-10.46 4.14,-21.44 6.13,-32.2 2.42,-13.08 4.56,-26.23 7.4,-39.22 4.17,-19.01 8.71,-37.95 13.34,-56.85 9.38,-38.28 19.11,-76.48 31.58,-113.87 5.38,-16.17 9.92,-32.61 16.11,-48.58 5.64,-14.57 11.26,-29.19 16.95,-43.76 5.35,-13.71 11.19,-27.24 17.3,-40.63 9.27,-20.32 19.62,-40.13 29.82,-59.99 1.52,-2.97 3.28,-5.81 5.03,-8.64 9.79,-15.82 19.41,-31.74 29.48,-47.38 6.7,-10.42 9.33,-21.48 9.16,-33.87 -0.44,-31.63 -0.15,-63.28 -0.15,-94.92z"/>
   <path class="fil1" d="M3694.97 15976.15c3.62,-0.61 3.33,-4.29 4.53,-6.49 2.65,-4.81 6.84,-6.49 11.58,-7.4 2.79,-0.53 5.73,-0.36 8.6,-0.36 44.11,-0.02 88.22,0.15 132.33,-0.1 16.23,-0.08 23.89,2.97 28.08,21.37 6.55,28.81 15.48,57 24.62,85.12 11.97,36.82 26.57,72.54 42.37,107.83 17.01,37.98 37.06,74.32 58.58,109.9 25.55,42.23 53.97,82.44 85.02,120.74 19.31,23.82 39.21,47.18 60.98,68.85 7.47,7.42 14.13,15.65 21.68,22.99 48.53,47.07 99.67,91.04 154.45,130.76 47.28,34.29 96.47,65.54 147.42,94.01 21.67,12.11 43.52,23.93 65.64,35.17 38.72,19.64 78.39,37.28 118.38,54.18 47.01,19.86 94.88,37.44 143.28,53.45 51.11,16.89 102.66,32.46 155.06,45.06 21.77,5.24 43.39,11.1 65.19,16.19 19.49,4.54 39.11,8.6 58.74,12.52 28.98,5.77 57.99,11.33 87.04,16.74 12.65,2.36 25.41,4.21 38.14,6.16 24.51,3.76 49,7.59 73.55,11.07 11.35,1.6 22.81,2.41 34.2,3.69 8.06,0.91 16.22,1.45 24.12,3.15 13.63,2.95 27.57,2.35 41.28,4.49 13.19,2.07 26.58,2.95 39.91,4.12 22.85,1.98 45.79,3.09 68.54,5.87 18.13,2.22 36.28,2.28 54.44,3.21 9.05,0.47 18.07,1.4 27.12,2 2.95,0.2 5.58,1.11 8.15,2.48 4.32,2.33 6.56,6.84 5.42,11.72 -0.86,3.7 -1.78,7.41 -3,11.01 -15.44,45.61 -40.96,85.08 -73.44,120.27 -2.6,2.82 -5.35,5.51 -8.17,8.09 -5.12,4.68 -11.08,7.51 -18.14,7.41 -17.68,-0.27 -35.37,0.67 -53.01,-2.1 -11.77,-1.86 -23.74,-2.48 -35.64,-3.5 -14.3,-1.21 -28.62,-2.13 -42.91,-3.4 -5.21,-0.47 -10.36,-1.63 -15.54,-2.4 -21.25,-3.15 -42.74,-4.07 -63.9,-8.12 -15.45,-2.96 -31.28,-3.85 -46.81,-6.41 -20.69,-3.44 -41.52,-5.93 -62.05,-10.45 -17.69,-3.89 -35.69,-6.34 -53.46,-9.86 -24.78,-4.92 -49.58,-9.83 -74.18,-15.52 -35.29,-8.17 -70.4,-17.08 -105.61,-25.6 -5.07,-1.23 -10.24,-2.02 -15.34,-3.13 -17.71,-3.87 -34.94,-9.39 -52.25,-14.72 -21.86,-6.72 -44,-12.55 -65.88,-19.2 -11.84,-3.61 -23.38,-8.21 -35.08,-12.26 -14.4,-4.98 -28.79,-10.03 -43.27,-14.78 -26.29,-8.62 -51.8,-19.29 -77.76,-28.79 -32.28,-11.81 -63.57,-25.97 -95.1,-39.5 -30.67,-13.17 -60.47,-28.41 -90.54,-42.98 -35.26,-17.09 -69.7,-35.79 -103.51,-55.54 -34.64,-20.25 -68.75,-41.38 -101.99,-63.9 -40.03,-27.11 -78.88,-55.77 -116.21,-86.5 -28.12,-23.13 -55.88,-46.62 -81.55,-72.5 -9.09,-9.17 -19.16,-17.39 -28.15,-26.66 -15.66,-16.17 -31.05,-32.61 -46.12,-49.33 -7.66,-8.5 -14.18,-18 -21.52,-26.81 -25.17,-30.13 -48.97,-61.3 -71.21,-93.68 -22.49,-32.75 -43.25,-66.59 -62.2,-101.45 -16.64,-30.61 -31.4,-62.17 -45.28,-94.2 -16.73,-38.61 -30.15,-78.31 -42.81,-118.35 -9.06,-28.66 -16.35,-57.77 -22.5,-87.18 -2.54,-12.11 -5.68,-24.12 -9.01,-36.03 -0.79,-2.78 -1.02,-6.83 -5.3,-7.54l0 -2.88z"/>
   <path class="fil1" d="M9799.9 17204.62c-0.47,0.07 -1.32,0.02 -1.38,0.21 -2.74,9.34 -9.09,10.96 -18.28,10.88 -55.11,-0.48 -110.24,-0.24 -165.34,-0.24 -2.41,0 -4.82,-0.14 -7.2,0.03 -3.18,0.23 -5.35,-0.82 -7,-3.73 -5.4,-9.55 -11.07,-18.94 -16.58,-28.44 -11.49,-19.8 -22.91,-39.64 -34.42,-59.44 -1.67,-2.88 -3.8,-5.54 -5.29,-8.53 -1.24,-2.5 -3.04,-3.44 -5.62,-3.44 -2.88,0 -5.75,-0.02 -8.62,-0.02l-370.96 0c-2.39,0 -4.81,0.19 -7.18,-0.03 -3.96,-0.38 -6.22,1.7 -7.99,4.85 -6.09,10.82 -12.23,21.59 -18.33,32.38 -10.31,18.27 -20.59,36.58 -30.92,54.84 -1.63,2.9 -3.58,5.64 -5.23,8.54 -1.36,2.38 -3.33,3.18 -5.94,3.01 -1.9,-0.13 -3.84,-0.02 -5.76,-0.02l-172.53 0c-2.39,0 -4.8,-0.08 -7.18,0.01 -2.73,0.09 -4.48,-1.46 -5.86,-3.49 -1.07,-1.57 -1.73,-3.41 -2.8,-4.98 -2.5,-3.65 -1.96,-6.92 0.23,-10.63 11.17,-18.89 22.15,-37.89 33.18,-56.87 19.9,-34.24 39.78,-68.5 59.68,-102.73 17.27,-29.7 34.56,-59.37 51.83,-89.05 19.91,-34.23 39.82,-68.46 59.73,-102.69 21.58,-37.11 43.18,-74.23 64.75,-111.35 12.69,-21.87 25.42,-43.72 37.96,-65.69 6.35,-11.11 5.51,-9.16 15.39,-9.17 81.48,-0.02 162.95,-0.01 244.42,-0.01 5.75,0 11.52,0.23 17.25,-0.08 4.37,-0.23 7.13,1.41 9.29,5.14 8.62,14.86 17.39,29.62 26.14,44.4 24.31,41.07 48.69,82.09 72.96,123.19 19.88,33.69 39.56,67.48 59.46,101.17 27.19,46.01 54.56,91.92 81.75,137.94 22.58,38.19 45.06,76.44 67.51,114.7 2.39,4.1 4.29,8.48 6.57,12.64 0.31,0.57 1.52,0.65 2.31,0.94l0 5.76zm-455.07 -186.19l66.16 0c24.45,0 48.9,0.02 73.35,-0.03 4.32,-0.01 5.19,-1.36 3.17,-4.91 -9.45,-16.59 -18.89,-33.19 -28.47,-49.71 -30.63,-52.88 -61.31,-105.75 -92,-158.6 -6.95,-11.97 -13.97,-23.92 -20.99,-35.85 -1.21,-2.06 -3.02,-2.14 -4.23,-0.34 -0.79,1.19 -1.61,2.37 -2.32,3.62 -10.88,19.07 -21.72,38.16 -32.6,57.22 -33.87,59.29 -67.76,118.56 -101.63,177.85 -1.17,2.08 -2.31,4.18 -3.41,6.31 -0.9,1.74 0.26,4.27 2.01,4.33 3.36,0.11 6.72,0.12 10.07,0.12 43.63,0 87.25,-0.01 130.89,-0.01z"/>
   <path class="fil2" d="M5602.44 18226.44c0,-20.62 0,-41.24 0,-61.85 0.01,-3.84 0.06,-7.68 0.08,-11.51 0.05,-9.86 4.92,-16.24 14.24,-19.06 5.45,-1.65 11.03,-2.85 16.58,-4.18 40.69,-9.82 80.26,-23.19 119.4,-37.9 44.62,-16.76 87.66,-36.92 129.47,-59.84 29.72,-16.3 58.66,-33.8 86.76,-52.69 29.75,-20 58.43,-41.5 86.07,-64.29 40.35,-33.28 77.94,-69.56 113.49,-107.87 20.49,-22.07 39.76,-45.26 58.56,-68.84 20.87,-26.16 40.82,-52.98 59.79,-80.53 27.89,-40.49 53.29,-82.52 77.07,-125.57 17.3,-31.32 33.27,-63.31 48.57,-95.61 15.87,-33.53 30.37,-67.71 44.02,-102.24 19.75,-49.97 37.2,-100.75 53.01,-152.07 13.15,-42.67 25.41,-85.64 35.7,-129.08 8.21,-34.65 16.13,-69.42 23.15,-104.32 3.55,-17.68 7.67,-35.32 9.78,-53.34 1.66,-14.12 5.53,-27.98 7.47,-42.08 1.11,-8.02 2.05,-16.06 3.45,-24.04 4.08,-23.43 5.88,-47.21 11.04,-70.48 0.51,-2.31 0.3,-4.78 0.41,-7.18 0.6,-12.87 2.62,-25.56 5.14,-38.19 0.28,-1.39 0.36,-2.83 0.49,-4.26 1.14,-12.83 2.22,-25.67 3.44,-38.5 0.72,-7.58 1.66,-15.13 2.51,-22.71 0.79,-7.1 -0.43,-14.41 2.38,-21.3 0.35,-0.83 0.16,-1.9 0.22,-2.85 1.14,-18.6 2.06,-37.21 3.46,-55.79 1.5,-19.96 2.25,-39.98 4.86,-59.87 1.06,-8.03 0.61,-16.28 0.75,-24.43 0.18,-10.55 0.47,-21.1 0.31,-31.64 -0.07,-4.88 0.99,-9.46 2.18,-14.07 2.08,-8.05 6.96,-10.99 14.72,-8.7 41.21,12.14 80.8,28.19 118.19,49.46 8.29,4.72 16.49,9.6 24.62,14.57 3.24,1.98 6.36,4.23 9.27,6.67 5.8,4.87 8.96,11.21 8.7,18.84 -0.49,14.77 1.51,29.68 -2.08,44.33 -0.11,0.45 -0.04,0.95 -0.07,1.42 -1.24,16.68 -1.84,33.42 -3.86,50 -2.67,21.72 -2.18,43.8 -7.46,65.23 -0.56,2.29 -0.43,4.76 -0.54,7.14 -0.68,13.35 -2.72,26.48 -5.15,39.62 -1.9,10.28 -2.4,20.82 -3.6,31.24 -1.06,8.99 -1.69,18.09 -3.46,26.93 -2.24,11.22 -3.73,22.53 -5.43,33.81 -1.78,11.75 -3.89,23.46 -6.04,35.16 -2.73,14.96 -6.01,29.81 -8.8,44.75 -2.81,14.94 -5.67,29.89 -8.73,44.78 -4.9,23.72 -10.35,47.34 -16.32,70.8 -12.08,47.4 -22.94,95.09 -37.19,141.95 -15.48,50.91 -31.21,101.74 -49.2,151.83 -7.87,21.91 -16.12,43.69 -24.44,65.45 -13.43,35.11 -28.17,69.69 -43.55,103.97 -13.45,29.98 -28.12,59.43 -42.53,88.98 -18.18,37.31 -38.24,73.63 -59.4,109.29 -27.03,45.56 -55.65,90.1 -86.84,132.99 -19.69,27.08 -40.23,53.45 -61.2,79.49 -13.51,16.77 -27.98,32.75 -42.36,48.78 -12.16,13.54 -24.74,26.69 -37.26,39.89 -7.58,7.98 -15.18,15.95 -23.94,22.73 -3.76,2.91 -7,6.53 -10.39,9.91 -22.36,22.4 -46.65,42.57 -71.04,62.66 -34.34,28.31 -70.44,54.13 -107.82,78.16 -16.04,10.29 -32.36,20.23 -49.04,29.43 -23.36,12.89 -46.77,25.79 -70.89,37.14 -34.81,16.4 -70.11,31.72 -106.64,44.2 -23.82,8.13 -47.48,16.71 -71.73,23.44 -21.96,6.1 -44.15,11.3 -66.34,16.53 -14.72,3.47 -29.99,5.54 -43.74,12.52 -3.14,1.6 -6.44,1.76 -9.76,1.85 -5.98,0.17 -11.28,-4.05 -12.08,-9.93 -0.52,-3.79 -0.42,-7.66 -0.43,-11.49 -0.02,-22.58 0,-45.11 0,-67.64z"/>
   <path class="fil2" d="M6034.23 14146.2c0,21.09 0.01,42.19 0,63.29 0,2.87 0.04,5.75 -0.08,8.62 -0.51,11.45 -4.02,16.33 -14.99,19.94 -5.41,1.78 -11.03,2.9 -16.57,4.3 -31.34,7.89 -61.76,18.73 -92.33,29.11 -20.74,7.04 -40.69,15.96 -60.84,24.45 -25.05,10.57 -49.27,22.8 -73.24,35.5 -36.69,19.45 -71.9,41.41 -105.98,65.16 -26.68,18.59 -52.26,38.58 -77.3,59.33 -41.8,34.61 -80.14,72.83 -116.92,112.58 -29.22,31.59 -56.23,65.08 -81.73,99.81 -16.68,22.71 -33.18,45.53 -48.47,69.2 -17.87,27.65 -34.93,55.77 -51.41,84.27 -19.58,33.88 -37.4,68.68 -54.25,103.93 -19.07,39.92 -36.47,80.59 -52.9,121.72 -17.99,45.07 -33.69,90.9 -48.78,136.95 -9.31,28.42 -16.77,57.43 -25.51,86.04 -8.2,26.83 -14.78,54.07 -20.96,81.39 -5.54,24.55 -11.5,49.02 -16.86,73.61 -4.65,21.37 -8.24,42.92 -12.9,64.27 -4.26,19.49 -6.42,39.44 -9.73,59.14 -2.29,13.59 -5.11,27.09 -7.4,40.67 -1.5,8.91 -2.4,17.93 -3.73,26.88 -2.6,17.44 -4.45,34.96 -6.41,52.49 -1.79,16.08 -4.32,32.07 -5.66,48.23 -1.52,18.52 -3.95,36.97 -6,55.43 -1.23,10.96 -1.27,21.92 -2.41,32.81 -1.37,13.24 -2.17,26.55 -4.32,39.74 -1.23,7.5 -1.04,15.25 -1.35,22.9 -0.75,18.63 -3.13,37.15 -2.98,55.83 0.01,2.31 -0.84,4.64 -1.34,6.96 -2.41,11.23 -6.14,12.29 -16.24,10.91 -5.56,-0.76 -11,-2.85 -16.32,-4.8 -37.83,-13.81 -72.78,-33.06 -105.83,-55.95 -5.53,-3.84 -10.87,-7.79 -15.65,-12.52 -3.58,-3.54 -5.61,-7.62 -5.51,-12.75 0.31,-17.74 -0.32,-35.54 1.04,-53.19 1.5,-19.47 3.96,-38.86 5.66,-58.34 1.91,-21.79 2.99,-43.73 7.43,-65.26 -0.49,-12.02 2.69,-23.7 3.52,-35.6 0.54,-7.59 1.69,-15.16 2.98,-22.66 3.62,-21.08 6.92,-42.24 10.04,-63.38 2.93,-19.79 7.31,-39.28 10.33,-59.04 2.53,-16.42 5.79,-32.77 8.88,-49.11 3.87,-20.53 8.83,-40.86 13.51,-61.22 3.73,-16.2 7.66,-32.35 11.66,-48.48 5.58,-22.59 11.13,-45.19 17.01,-67.71 4.67,-17.92 9.58,-35.78 14.78,-53.55 8.54,-29.18 17.27,-58.29 26.19,-87.35 3.34,-10.9 7.61,-21.51 11.17,-32.34 14.82,-45.18 31.73,-89.6 49.52,-133.67 17.45,-43.25 36.35,-85.88 56.34,-128.06 17.17,-36.2 35.92,-71.52 55.1,-106.64 29.75,-54.49 62.64,-107.05 98.18,-157.92 18.87,-27.02 38.88,-53.21 59.48,-78.98 16.73,-20.93 34.62,-40.86 51.6,-61.57 3.64,-4.43 7.8,-8.45 11.85,-12.53 22.62,-22.82 44.96,-45.9 67.99,-68.29 24.03,-23.35 49.93,-44.6 76.15,-65.48 27.67,-22.03 56.13,-42.92 85.81,-62.17 29.61,-19.22 59.93,-37.22 91.29,-53.46 7.18,-3.72 14.27,-7.65 21.5,-11.29 17,-8.58 34.43,-16.19 51.84,-23.87 20.47,-9.02 41.02,-17.85 62.19,-24.92 31.06,-10.37 61.86,-21.67 93.75,-29.4 18.46,-4.47 36.86,-9.23 55.42,-13.27 8.36,-1.83 16.68,-3.5 24.87,-6.15 4.41,-1.44 9.49,-1.09 14.26,-1.06 7,0.05 10.4,3.19 11.22,10.3 0.45,3.79 0.32,7.66 0.32,11.49 0.03,21.57 0.02,43.15 0.02,64.73z"/>
   <path class="fil1" d="M7856.59 16409.95c-17.74,0 -35.48,0.01 -53.22,-0.01 -3.35,0 -6.74,0.16 -10.06,-0.24 -9.21,-1.12 -16.33,-5.09 -18.87,-14.85 -2.64,-10.13 -5.59,-20.21 -8.02,-30.4 -7.31,-30.67 -18.03,-60.26 -28.41,-89.96 -17.54,-50.14 -40.2,-98 -65.31,-144.7 -19.26,-35.82 -41.04,-70.11 -64.43,-103.42 -25.89,-36.88 -54.17,-71.85 -84.14,-105.44 -14.02,-15.72 -29.26,-30.37 -44.01,-45.45 -49.36,-50.5 -103.69,-95.09 -161.05,-136.16 -53.71,-38.45 -109.75,-73.04 -167.96,-104.2 -64.83,-34.7 -131.71,-64.82 -200.22,-91.51 -46.2,-17.99 -92.88,-34.56 -140.24,-49.09 -52.81,-16.22 -105.89,-31.6 -159.79,-43.91 -30.66,-7.01 -61.33,-14.01 -92.14,-20.37 -22.4,-4.62 -45.02,-8.2 -67.55,-12.21 -20.65,-3.68 -41.28,-7.45 -61.96,-10.92 -8.95,-1.51 -18.01,-2.32 -27.01,-3.56 -6.6,-0.91 -13.17,-2.15 -19.79,-2.99 -24.14,-3.06 -48.29,-6.15 -72.47,-8.97 -17.55,-2.05 -35.27,-2.92 -52.67,-5.79 -12.78,-2.11 -25.77,-1.59 -38.43,-4.36 -3.24,-0.71 -6.68,-0.66 -10.03,-0.69 -19.17,-0.12 -38.07,-3.05 -57.07,-5.09 -12.36,-1.32 -24.89,-1.06 -37.34,-1.65 -13.85,-0.66 -27.68,-1.56 -41.52,-2.16 -4.44,-0.19 -8.48,-1.43 -12.33,-3.4 -2.77,-1.41 -4.05,-3.96 -4.2,-7.03 -0.23,-4.48 1.43,-8.41 3.55,-12.24 6.03,-10.85 11.79,-21.86 18.06,-32.58 16.17,-27.64 33.13,-54.82 50.79,-81.54 3.17,-4.78 6.38,-9.55 9.84,-14.11 4.91,-6.44 11.43,-10.04 19.69,-10.02 17.7,0.02 35.42,-0.39 53.03,2.04 1.42,0.2 2.86,0.23 4.29,0.34 26.67,2.2 53.34,4.34 80.01,6.65 5.21,0.44 10.36,1.58 15.55,2.29 28.84,3.96 57.98,5.61 86.64,11.08 7.48,1.42 15.15,1.6 22.72,2.9 21.63,3.7 43.28,7.11 64.84,11.26 16.83,3.24 33.8,5.83 50.62,9.28 25.69,5.26 51.59,9.51 77.12,15.42 42.24,9.8 84.32,20.27 126.31,31.06 23.52,6.05 46.7,13.39 70.08,20 45.85,12.97 90.86,28.55 135.75,44.44 46.24,16.39 91.97,34.23 136.98,53.85 45.03,19.64 89.73,39.98 133.3,62.74 69.52,36.3 137.12,75.76 201.42,120.74 37.27,26.07 73.54,53.44 108.31,82.8 19.77,16.69 39.22,33.72 57.86,51.66 8.63,8.3 17.67,16.2 26.13,24.66 63.18,63.2 119.65,131.84 167.63,207.35 31.32,49.28 58.91,100.54 81.82,154.25 15.34,35.96 29.32,72.47 40.61,109.94 8.67,28.75 16.85,57.64 23.57,86.9 4.57,19.97 8.42,40.11 12.25,60.25 0.97,5.11 0.77,10.49 0.69,15.75 -0.08,4.88 -3.09,7.75 -7.6,9.3 -5.06,1.73 -10.25,2.12 -15.54,2.1 -18.69,-0.07 -37.38,-0.04 -56.08,-0.03z"/>
   <path class="fil1" d="M4069.28 15961.88c17.26,0 34.52,-0.01 51.77,0.01 3.84,0 7.67,0.02 11.5,0.16 8.77,0.33 15.63,3.96 19.91,11.83 5.02,9.24 10.07,18.46 14.97,27.75 24.13,45.75 51.5,89.49 81.93,131.29 17.47,23.99 35.71,47.37 55.14,69.86 20.38,23.58 41.03,46.86 63.21,68.75 32.08,31.64 65.65,61.59 100.92,89.65 36.36,28.9 74.11,55.82 113.29,80.72 42.76,27.17 86.92,51.83 132.29,74.43 42.3,21.06 85.41,40.25 129.34,57.53 54.11,21.3 109.24,39.59 165.04,56.03 45.27,13.32 91.12,24.2 136.9,35.4 20.82,5.12 41.99,8.76 63.03,12.91 18.71,3.69 37.35,8.05 56.23,10.48 21.79,2.82 43.09,8.53 65.07,10.07 6.15,0.43 12.22,2.02 18.36,2.78 24.15,3.01 48.29,6.08 72.48,8.78 18.98,2.12 38.03,3.64 57.03,5.6 13.29,1.36 26.54,3.01 39.81,4.52 1.9,0.21 3.82,0.47 5.72,0.44 20.63,-0.29 41.09,2.39 61.55,4.19 19.59,1.71 39.17,2.22 58.77,2.71 4.41,0.11 8.49,1.2 12.59,2.35 4.06,1.12 6.62,4.08 6.72,8.32 0.11,4.77 0.32,9.73 -0.74,14.31 -5.2,22.35 -7.61,45.14 -11.16,67.77 -3.33,21.18 -6.17,42.46 -10.96,63.4 -0.85,3.69 -1.72,7.47 -3.21,10.94 -2.89,6.74 -8.13,10.57 -15.65,10.41 -9.57,-0.19 -19.14,-0.56 -28.7,-1.07 -4.28,-0.23 -8.52,-1.08 -12.79,-1.47 -19.5,-1.79 -38.97,-4.05 -58.51,-5.09 -14.36,-0.77 -28.6,-2.46 -42.8,-4.33 -20.33,-2.65 -40.9,-3.26 -61.09,-7.44 -10.24,-2.12 -20.89,-2.26 -31.34,-3.48 -8.05,-0.93 -16.08,-2.05 -24.1,-3.22 -24.54,-3.59 -49.04,-7.5 -73.62,-10.8 -35,-4.7 -69.64,-11.43 -104.28,-18.05 -36.5,-6.98 -72.99,-14.27 -109.09,-23.03 -52.31,-12.69 -104.6,-25.45 -155.98,-41.75 -27.22,-8.63 -54.63,-16.62 -81.63,-25.94 -38.28,-13.23 -76.32,-27.07 -113.77,-42.48 -44.11,-18.15 -87.58,-37.66 -130.06,-59.34 -61.78,-31.53 -121.65,-66.23 -178.46,-106.12 -43.54,-30.56 -85.4,-63.18 -124.76,-99.02 -24.12,-21.97 -47.26,-44.92 -69.55,-68.65 -37.1,-39.47 -70.78,-81.82 -100.91,-126.85 -27.39,-40.93 -52.15,-83.47 -73.04,-128.12 -19.42,-41.5 -36.2,-84.08 -49.65,-127.92 -2.38,-7.74 -5.01,-15.42 -7.12,-23.24 -1.98,-7.31 1.79,-13.64 9.03,-15.18 3.7,-0.78 7.61,-0.77 11.42,-0.78 19.65,-0.07 39.3,-0.03 58.96,-0.03l-0.01 0.01z"/>
   <path class="fil1" d="M7584.07 16409.95c-16.79,0 -33.57,0.01 -50.34,0 -3.36,0 -6.72,-0.05 -10.08,-0.09 -12.03,-0.15 -20.6,-5.14 -26.32,-16.27 -10.71,-20.81 -21.81,-41.44 -33.55,-61.66 -16.83,-28.97 -34.95,-57.09 -54.77,-84.15 -18.66,-25.5 -37.84,-50.63 -58.5,-74.53 -23.82,-27.55 -48.49,-54.36 -74.86,-79.54 -26.35,-25.16 -53.52,-49.38 -81.79,-72.35 -21.54,-17.51 -43.84,-34.04 -66.46,-50.13 -60.87,-43.31 -125.13,-80.96 -191.96,-114.24 -35.86,-17.86 -72.43,-34.2 -109.52,-49.42 -48.97,-20.09 -98.71,-38 -149.19,-53.86 -33.16,-10.42 -66.36,-20.73 -100.19,-28.92 -27.78,-6.73 -55.55,-13.47 -83.46,-19.66 -19.54,-4.33 -39.1,-8.61 -58.74,-12.41 -19.65,-3.8 -39.45,-6.88 -59.18,-10.29 -20.22,-3.49 -40.4,-7.11 -60.64,-10.41 -9.89,-1.62 -19.88,-2.65 -29.81,-3.96 -7.11,-0.94 -14.2,-1.95 -21.31,-2.85 -21.3,-2.67 -42.6,-5.46 -63.95,-7.88 -13.29,-1.5 -26.64,-2.51 -39.98,-3.58 -27.15,-2.16 -54.4,-3.6 -81.47,-6.52 -21.02,-2.27 -42.08,-1.73 -63.08,-2.95 -5.7,-0.33 -11.41,-0.91 -17.02,-1.89 -5.78,-1.02 -9.3,-4.93 -10.08,-10.69 -0.58,-4.25 -0.5,-8.61 -0.52,-12.92 -0.11,-20.66 3.07,-41 7.5,-61.05 5.04,-22.79 11.05,-45.36 16.78,-67.99 1.05,-4.14 2.6,-8.18 4.2,-12.15 2.76,-6.86 7.68,-10.78 15.38,-10.64 12.91,0.24 25.8,0.01 38.68,1.85 12.76,1.81 25.66,2.76 38.5,3.87 25.22,2.16 50.54,3.28 75.49,7.96 3.74,0.7 7.64,0.64 11.47,0.73 13.89,0.33 27.54,2.58 41.21,4.79 8.95,1.44 17.97,2.63 27.01,3.34 20.49,1.64 40.63,5.83 60.99,8.12 21.87,2.46 43.33,7.08 65.11,9.94 17.01,2.22 33.83,5.91 50.7,9.08 13.11,2.47 26.15,5.35 39.27,7.73 37.07,6.72 73.73,15.28 110.41,23.79 32.48,7.54 64.7,16.07 96.74,25.31 22.87,6.61 45.73,13.3 68.49,20.29 70.66,21.69 139.76,47.63 207.41,77.38 27.05,11.9 53.9,24.24 80.36,37.48 49.58,24.82 97.61,52.33 144.27,82.24 49.62,31.82 96.91,66.84 141.9,104.89 39.57,33.48 76.33,69.98 111.05,108.43 34.68,38.41 66.26,79.36 94.68,122.64 30.22,46 56.71,94 79.65,144.09 16.33,35.64 29.76,72.32 43.21,109.03 2.11,5.76 4.46,11.6 4.57,17.94 0.06,4.95 -2.14,8.38 -6.65,9.88 -5.03,1.65 -10.18,2.29 -15.53,2.24 -18.69,-0.14 -37.39,-0.04 -56.08,-0.04z"/>
   <path class="fil2" d="M6034.21 14426.55c0,20.61 -0.34,41.23 0.12,61.84 0.28,12.55 -5.23,20.64 -15.92,26.46 -16.74,9.13 -33.21,18.72 -49.79,28.15 -26.97,15.34 -52.94,32.29 -78.13,50.38 -18.22,13.1 -36.02,26.8 -53.87,40.39 -6.47,4.92 -12.7,10.18 -18.81,15.55 -12.23,10.73 -24.39,21.56 -36.44,32.5 -10.27,9.33 -20.48,18.74 -30.5,28.34 -25.98,24.88 -49.68,51.9 -73.04,79.17 -25.8,30.13 -49.49,61.94 -72.38,94.37 -26.16,37.08 -49.86,75.67 -72.11,115.15 -19.42,34.46 -37.06,69.85 -53.94,105.64 -16.46,34.89 -31.25,70.47 -45.1,106.43 -13.66,35.47 -26.57,71.26 -37.86,107.56 -11.28,36.26 -21.63,72.83 -31.66,109.47 -5.14,18.77 -8.68,37.97 -12.98,56.97 -4,17.6 -8.26,35.15 -12.01,52.8 -2.96,13.94 -6.44,27.76 -8.27,41.97 -1.66,12.69 -4.63,25.22 -7.18,37.79 -1.61,7.94 -1.75,16.02 -3.46,24.03 -4.97,23.24 -6.74,47.04 -11.4,70.39 -1.75,8.81 -1.54,18 -3.17,26.96 -2.31,12.63 -2.78,25.55 -5.4,38.16 -0.19,0.92 -0.16,1.9 -0.18,2.85 -0.52,18.16 -3.56,36.04 -5.58,54.04 -1.69,15.18 -2.65,30.45 -3.33,45.71 -0.95,20.98 -2.42,41.9 -5.29,62.71 -0.26,1.89 -0.12,3.83 -0.21,5.74 -0.99,20.53 -1.96,41.06 -2.97,61.59 -0.49,9.64 -4.37,14.41 -13.71,15.02 -10.49,0.68 -21.05,0.77 -31.53,-0.84 -14.1,-2.18 -28.18,-4.39 -42.15,-7.34 -19.04,-4.01 -38.2,-7.51 -56.62,-14.1 -6.68,-2.39 -13.65,-4 -20.4,-6.2 -8.43,-2.74 -11.97,-8.85 -11.56,-17.54 0.64,-13.83 0.25,-27.62 2.35,-41.46 2.35,-15.53 2.62,-31.38 3.91,-47.07 0.67,-8.07 1.66,-16.11 2.33,-24.17 0.64,-7.6 1.47,-15.16 2.4,-22.73 1.52,-12.27 3.56,-24.52 4.06,-36.99 0.48,-11.83 2.87,-23.58 4.43,-35.37 0.25,-1.89 0.51,-3.78 0.73,-5.67 2.1,-18.47 3.56,-37.04 6.47,-55.38 2.97,-18.8 4.86,-37.76 8.43,-56.45 3.73,-19.6 6.67,-39.35 10.13,-58.99 3.31,-18.72 7.39,-37.31 10.16,-56.17 2.89,-19.71 7.59,-39.17 11.89,-58.65 6.36,-28.75 12.86,-57.47 19.71,-86.11 4.63,-19.39 9.63,-38.71 15.08,-57.89 8.98,-31.51 17.86,-63.07 27.84,-94.28 15.06,-47.06 31.32,-93.72 49.62,-139.67 13.72,-34.48 28.12,-68.66 43.59,-102.36 14.32,-31.18 29.47,-61.99 46.48,-91.83 5.42,-9.53 10.42,-19.29 15.81,-28.83 25.38,-44.91 53.34,-88.14 83.37,-130.08 22.57,-31.51 46.79,-61.7 72.07,-91.02 16.56,-19.22 33.81,-37.91 52.12,-55.5 17.97,-17.26 35.83,-34.65 54.5,-51.12 22.22,-19.59 45.41,-38.07 69.51,-55.36 24.82,-17.81 50.24,-34.74 76.37,-50.57 6.52,-3.95 13.17,-7.7 19.86,-11.36 15.05,-8.23 29.81,-17.12 45.32,-24.37 40.04,-18.71 80.4,-36.78 122.77,-49.87 10.43,-3.22 20.75,-6.83 31.21,-9.96 7.36,-2.21 13.28,1.93 14.02,9.59 0.37,3.8 0.31,7.66 0.31,11.49 0.03,18.7 0.02,37.39 0.02,56.09l-0.04 0z"/>
   <path class="fil2" d="M5602.47 17943.2c0,-19.66 -0.06,-39.32 0.05,-58.98 0.01,-3.79 0.08,-7.74 1.1,-11.33 2.1,-7.31 7.44,-11.87 14.11,-15.34 13.53,-7.04 26.88,-14.39 40.29,-21.66 48.34,-26.2 94.1,-56.42 137.55,-90.06 21.54,-16.69 42.38,-34.28 62.74,-52.49 25.76,-23.02 50.27,-47.3 73.81,-72.5 24.14,-25.85 46.95,-52.87 68.6,-80.94 26.88,-34.85 51.57,-71.11 75.31,-108.07 12.88,-20.06 25.17,-40.49 36.4,-61.55 10.1,-18.92 21.15,-37.37 30.54,-56.64 16.87,-34.65 33.79,-69.31 47.83,-105.27 6.39,-16.38 13.67,-32.42 19.89,-48.88 16.64,-44.01 32.69,-88.21 45.45,-133.54 5.66,-20.12 12.35,-39.93 18.08,-60.02 7.04,-24.67 13.2,-49.57 18.77,-74.62 4.03,-18.09 8.67,-36.02 12.6,-54.12 3.81,-17.64 8.21,-35.16 10.74,-53.1 1.78,-12.68 5.32,-25.12 7.04,-37.82 1.98,-14.63 6.2,-28.86 7.28,-43.64 0.35,-4.71 1.72,-9.34 2.59,-14 2.6,-14.05 3.97,-28.3 6.34,-42.35 3.39,-20.21 5.53,-40.55 8.31,-60.81 2.46,-17.95 5.36,-35.83 5.92,-53.97 3.49,-11.52 0.96,-23.86 4.77,-35.34 0.15,-0.44 0.08,-0.95 0.11,-1.43 1.07,-14.27 2.3,-28.54 3.13,-42.83 0.49,-8.59 1.1,-17.1 2.54,-25.6 1.34,-7.96 1.05,-16.09 2.42,-24.18 1.67,-9.83 1.23,-20.07 1.11,-30.13 -0.07,-5.4 1.12,-10.43 2.63,-15.43 1.69,-5.57 5.71,-9.01 11.54,-9.11 9.09,-0.17 18.32,-0.64 27.27,0.65 15.02,2.18 30.09,4.33 44.93,7.83 20.35,4.78 40.53,10.05 60.32,16.84 2.76,0.95 5.36,1.86 7.66,3.65 4.39,3.41 7.16,7.55 6.9,13.42 -0.56,12.39 0.72,24.9 -2.6,37.11 -0.25,0.91 -0.23,1.9 -0.29,2.86 -1.04,14.76 -2.28,29.51 -3.06,44.29 -0.84,16.2 -2.54,32.29 -5.39,48.26 -0.25,1.41 -0.28,2.87 -0.23,4.31 0.49,14.89 -1.97,29.61 -3.97,44.2 -1.61,11.76 -1.46,23.72 -4.31,35.42 -1.99,8.22 -2,17.02 -2.88,25.53 -1.42,13.76 -3.73,27.35 -5.81,40.99 -1.29,8.46 -1.31,17.04 -3.09,25.53 -4.61,21.86 -6.19,44.24 -11.08,66.11 -1.75,7.8 -2.07,16.03 -3.51,24.01 -4.14,22.93 -7.93,45.93 -12.32,68.81 -3.21,16.79 -6.88,33.5 -10.82,50.13 -7.44,31.43 -13.73,63.1 -21.82,94.41 -7.36,28.51 -15.43,56.81 -23,85.27 -12.72,47.8 -29.18,94.41 -45.2,141.13 -10.32,30.11 -21.99,59.83 -34.64,89.04 -10.57,24.45 -20.38,49.29 -32.74,72.97 -5.06,9.7 -9.02,19.95 -13.92,29.74 -22.65,45.21 -47.08,89.42 -73.81,132.37 -22.99,36.94 -47.87,72.53 -74.42,106.94 -16.08,20.83 -33.21,40.79 -50.32,60.8 -20.29,23.72 -42.66,45.38 -64.8,67.27 -19.76,19.52 -41.09,37.29 -62.64,54.82 -19.66,16 -39.9,31.19 -60.68,45.66 -30.56,21.27 -62.43,40.43 -95.28,57.94 -38.66,20.6 -78.44,38.64 -119.78,53.31 -20.14,7.15 -40.26,14.33 -60.64,20.79 -3.73,1.18 -7.37,1.93 -11.18,2.06 -7.04,0.23 -11.62,-3.88 -12.26,-11.09 -0.29,-3.33 -0.2,-6.7 -0.21,-10.06 -0.02,-19.18 0,-38.35 0,-57.54l0.03 0.01 0 -0.04z"/>
   <path class="fil1" d="M8428.39 17218.67c-24.76,0 -49.69,0.42 -74.61,-0.13 -24.85,-0.52 -49.72,-1.62 -74.54,-3.19 -19.03,-1.21 -38.06,-2.95 -56.96,-5.49 -27.8,-3.73 -55.56,-8.03 -82.33,-16.87 -19.71,-6.51 -37.64,-15.97 -52.78,-30.55 -16.31,-15.7 -26.77,-34.84 -32.78,-56.28 -6.12,-21.77 -6.77,-44.31 -6.38,-66.82 0.1,-4.78 7.41,-11.83 12.39,-12.29 1.89,-0.17 3.83,0.01 5.74,0.01l162.51 0c1.43,0 2.87,-0.05 4.32,0 3.73,0.13 4.8,0.96 5.74,4.97 0.53,2.29 0.93,4.65 1.04,7 0.3,6.69 0.39,13.41 0.63,20.11 0.29,8.17 2.5,15.9 4.91,23.67 4.58,14.67 14.65,23.49 29.13,26.61 13,2.83 26.27,4.81 39.54,5.91 53.99,4.51 108.12,3.75 162.24,3.62 15.33,-0.04 30.72,0.24 46,-0.77 22.8,-1.5 45.64,-3.02 68.02,-8.29 11.5,-2.71 21.64,-7.42 28.86,-17.15 5.85,-7.86 8.72,-17 9.92,-26.48 1.44,-11.28 2.14,-22.62 0.38,-34.04 -2.47,-15.99 -10.05,-27.48 -26.27,-32.31 -8.23,-2.45 -16.4,-4.78 -25.01,-5.67 -13.73,-1.42 -27.4,-3.32 -41.11,-4.93 -2.84,-0.34 -5.74,-0.35 -8.61,-0.43 -40.19,-1.24 -80.42,-1.79 -120.57,-3.98 -22.45,-1.21 -44.99,-0.86 -67.34,-2.91 -14.3,-1.32 -28.61,-1.46 -42.9,-2.52 -7.59,-0.56 -15.15,-1.65 -22.75,-2.18 -7.14,-0.51 -14.22,-1.2 -21.34,-2.24 -10.37,-1.5 -20.91,-1.22 -31.32,-3.28 -9.78,-1.95 -19.94,-1.98 -29.75,-3.85 -16.79,-3.2 -33.67,-6.14 -50.1,-10.98 -17.47,-5.13 -34.19,-11.67 -48.36,-23.73 -19.69,-16.76 -31.37,-38.09 -37.34,-62.92 -5.09,-21.08 -6.83,-42.51 -5.15,-64.03 1.37,-17.57 4.27,-35 11.09,-51.5 11.19,-27.12 29.78,-47.54 55.54,-61.45 15.6,-8.44 32.34,-13.91 49.54,-17.75 17.16,-3.85 34.4,-7.23 51.95,-9.37 18,-2.2 36.02,-3.83 54.04,-5.74 17.67,-1.87 35.39,-1.35 52.99,-2.99 29.63,-2.78 59.31,-1.9 88.97,-2.22 20.61,-0.22 41.23,0.3 61.83,-0.03 32.6,-0.5 65.02,3.03 97.57,3.46 14.47,3.61 29.44,2 44.13,4.31 10.75,1.69 21.82,2.44 32.64,4.12 28.66,4.44 57.18,9.83 83.57,22.72 25.85,12.62 45.48,31.46 56.6,58.35 5.29,12.83 8.99,26.2 9.47,40.15 0.48,13.88 0.3,27.79 0.36,41.69 0.01,2.35 -1.5,3.32 -3.64,3.4 -2.39,0.09 -4.79,0.09 -7.19,0.09 -56.08,0.01 -112.16,0.01 -168.26,0.01 -2.38,0 -4.79,0 -7.18,-0.06 -2.06,-0.04 -3.36,-0.86 -4.16,-3.02 -1.55,-4.1 -2.24,-8.28 -2.38,-12.61 -0.3,-8.69 -2.82,-16.88 -5.66,-25.02 -6.28,-17.96 -19.08,-28.22 -37.59,-31.05 -9.88,-1.51 -19.78,-2.91 -29.81,-3.78 -56.46,-4.89 -112.97,-2.2 -169.46,-2.01 -15.46,3.36 -31.37,1.79 -46.97,4.55 -11.23,1.97 -22.57,3.14 -33.59,6.34 -4.64,1.35 -8.93,3.24 -13.07,5.63 -11.87,6.85 -18.79,16.82 -21.32,30.56 -2.76,15.03 -0.83,29.45 3.57,43.62 3.63,11.72 11.64,18.86 24.01,22.18 8.38,2.25 16.9,2.76 25.29,4.3 13.09,2.42 26.6,2.6 39.93,3.64 24.8,1.95 49.69,2.4 74.5,3.96 17.68,1.12 35.35,1.31 53.02,1.97 27.73,1.04 55.52,1.56 83.18,3.6 14.78,1.09 29.59,1.48 44.34,2.75 16.61,1.42 33.24,2.99 49.77,5.22 30.18,4.07 60.36,8.2 89.68,16.96 10.53,3.15 20.66,7.22 30.15,12.71 22.43,12.97 37.7,32.13 46.52,56.27 5.43,14.81 8.78,30.24 8.97,46.13 0.15,12.46 0.67,24.98 -0.31,37.36 -1.78,22.42 -6.39,44.2 -16.15,64.8 -14.28,30.11 -37.19,50.37 -68.29,61.63 -19.27,6.98 -39.17,11.27 -59.38,14.67 -18.33,3.1 -36.9,4.09 -55.14,7.53 -0.47,0.09 -0.96,0.03 -1.44,0.06 -14.3,1.08 -28.62,2.11 -42.91,2.88 -50.69,2.79 -101.43,4.91 -152.39,3.39z"/>
   <path class="fil1" d="M7278.2 16410.21c-23.02,0 -46.03,0.02 -69.04,-0.01 -3.84,-0.01 -7.74,0.24 -11.49,-0.39 -7.73,-1.3 -14.43,-4.42 -19.04,-11.38 -7.68,-11.57 -15.49,-23.05 -23.69,-34.24 -26.13,-35.66 -55.96,-67.92 -88.63,-97.77 -46.49,-42.5 -97.49,-78.78 -151.21,-111.3 -41.24,-24.97 -84.18,-46.89 -127.98,-67.05 -61.13,-28.12 -123.8,-52.26 -188,-72.51 -47.26,-14.9 -94.77,-28.75 -143.13,-39.67 -27.88,-6.29 -55.62,-13.17 -83.59,-18.99 -19.61,-4.08 -39.5,-6.84 -59.27,-10.11 -12.69,-2.11 -25.41,-4.08 -38.12,-6.1 -9.89,-1.58 -19.75,-3.31 -29.66,-4.67 -27.42,-3.76 -54.86,-7.36 -82.28,-11.01 -0.95,-0.13 -1.92,-0.14 -2.87,-0.2 -17.18,-1.18 -34.37,-2.3 -51.54,-3.56 -21.44,-1.57 -42.86,-3.27 -64.3,-4.86 -4.3,-0.31 -8.62,-0.42 -12.93,-0.5 -22.05,-0.38 -44.1,-0.87 -66.15,-0.96 -5.36,-0.03 -10.44,-1.13 -15.57,-2.13 -4.92,-0.95 -7.55,-4.11 -7.69,-8.98 -0.13,-4.29 -0.08,-8.67 0.62,-12.89 1.95,-11.75 4.28,-23.43 6.45,-35.14 0.35,-1.87 0.89,-3.75 0.95,-5.63 0.71,-22.48 4.26,-44.81 3.41,-67.38 -0.36,-9.57 -0.19,-19.18 0.24,-28.75 0.43,-9.61 5.66,-14.93 15.15,-15.78 4.28,-0.37 8.65,-0.3 12.94,0.07 20.46,1.74 40.96,3.24 61.34,5.66 11.92,1.42 23.86,1.54 35.76,2.53 5.69,0.48 11.31,1.67 16.99,2.26 20.91,2.17 41.86,4.07 62.75,6.39 9.94,1.1 19.79,3.06 29.72,4.39 9.93,1.33 19.96,2.05 29.86,3.57 22.61,3.46 45.32,6.14 67.77,10.81 18.67,3.89 37.61,6.43 56.41,9.73 11.73,2.06 23.41,4.42 35.11,6.64 52.46,9.98 103.91,24.23 155.75,36.8 13.88,3.36 27.6,7.45 41.25,11.65 31.39,9.64 63.04,18.44 94.01,29.4 38.63,13.66 77.17,27.54 115.07,43.17 45.86,18.91 91.08,39.21 135.25,61.85 60.46,30.98 118.96,65.28 174.49,104.41 39.95,28.14 78.55,58.06 114.02,91.79 14.92,14.2 30.05,28.25 44.21,43.19 23.38,24.7 44.91,51 64.79,78.65 19.03,26.48 34.92,54.78 48.96,84.13 2.88,6.01 5.22,12.29 7.52,18.57 2.55,6.99 -0.27,12 -7.11,14.35 -4.2,1.43 -8.41,1.7 -12.71,1.7l-74.81 0 0 0.25 0.02 0z"/>
   <path class="fil1" d="M4372.36 15961.88c23.49,0 46.97,-0.01 70.46,0.01 3.84,0 7.7,-0.13 11.5,0.26 7.93,0.82 14.62,3.92 19.26,10.86 5.83,8.76 11.89,17.37 17.89,26.01 31.02,44.72 67.87,84.06 108.76,119.93 39.32,34.48 81.43,65.07 125.68,92.78 25.91,16.22 52.69,30.93 79.63,45.39 32.82,17.62 66.77,32.79 100.91,47.52 53.4,23.06 108.08,42.59 163.59,59.97 44.59,13.96 89.86,25.37 135.14,36.67 27.71,6.9 55.89,12.04 83.96,17.42 26.68,5.13 53.49,9.64 80.27,14.25 7.51,1.3 15.16,1.59 22.74,2.75 18.86,2.9 37.9,4.62 56.85,6.86 12.32,1.45 24.63,3 36.94,4.5 1.43,0.17 2.85,0.37 4.28,0.46 19.09,1.22 38.18,2.33 57.27,3.65 20.97,1.45 41.9,3.5 62.89,4.55 18.65,0.91 37.37,0.85 56.06,1.19 4.79,0.09 9.59,-0.08 14.37,0.19 11.91,0.67 16.67,5 17.01,16.68 0.39,13.88 0.14,27.79 -0.06,41.69 -0.13,10.06 -0.3,20.14 -1.01,30.17 -1.28,18.1 -3.12,36.15 -6.46,54 -1.31,7.03 -2.89,14.01 -4.48,20.99 -1.51,6.66 -5.56,10.48 -12.36,12.33 -5.75,1.57 -11.4,1.43 -17.06,0.95 -17.6,-1.45 -35.16,-3.41 -52.75,-4.89 -25.21,-2.11 -50.47,-3.54 -75.46,-7.77 -3.76,-0.64 -7.66,-0.33 -11.46,-0.77 -11.85,-1.39 -23.68,-2.91 -35.51,-4.44 -8.99,-1.16 -17.97,-2.43 -26.97,-3.61 -24.61,-3.24 -49.28,-6.03 -73.81,-9.8 -21.2,-3.24 -42.25,-7.46 -63.33,-11.47 -17.79,-3.38 -35.46,-7.35 -53.28,-10.61 -27.67,-5.07 -55.04,-11.54 -82.32,-18.3 -28.2,-6.98 -56.27,-14.53 -84.3,-22.18 -16.08,-4.39 -31.99,-9.36 -47.92,-14.29 -29.58,-9.12 -59.13,-18.34 -88.3,-28.79 -52.5,-18.82 -104.33,-39.3 -155.03,-62.52 -65.62,-30.07 -129.51,-63.46 -190.45,-102.19 -40.77,-25.91 -80.28,-53.67 -117.78,-84.24 -31.6,-25.76 -61.97,-52.82 -90.19,-82.25 -40.89,-42.65 -77.27,-88.69 -105.79,-140.69 -7.14,-13.01 -13.56,-26.29 -19.49,-39.84 -1.33,-3.03 -2.4,-6.26 -2.96,-9.51 -1.21,-6.95 1.97,-11.76 9.7,-13.33 4.17,-0.86 8.59,-0.54 12.9,-0.54 23.5,-0.03 46.99,-0.01 70.47,0z"/>
   <path class="fil1" d="M7560.2 17218.48c-27.81,0 -55.62,0.39 -83.42,-0.13 -21.51,-0.39 -43.02,-1.6 -64.48,-3.08 -19.03,-1.32 -38.09,-2.91 -56.98,-5.45 -29.71,-4 -59.43,-8.21 -88.28,-16.84 -16.91,-5.06 -33.46,-10.99 -48.63,-20.26 -11.2,-6.84 -20.27,-15.83 -28.11,-26.3 -9.84,-13.14 -16.91,-27.73 -22.29,-43.06 -8.68,-24.78 -14.62,-50.25 -18.1,-76.34 -2.59,-19.43 -4.52,-38.87 -6.15,-58.41 -3.35,-39.71 -3.53,-79.46 -1.68,-119.16 1.39,-30.22 8.8,-59.4 23.03,-86.41 17.67,-33.56 44.45,-56.96 79.8,-70.53 20.47,-7.86 41.52,-13.48 63.1,-17.52 18.75,-3.5 37.51,-6.65 56.5,-8.56 12.32,-1.23 24.58,-3.11 36.86,-4.68 0.47,-0.07 0.95,-0.03 1.43,-0.06 15.27,-1.02 30.56,-1.82 45.82,-2.9 28.15,-1.99 56.41,-2.7 84.64,-3.25 28.29,-0.56 56.58,-0.33 84.87,-0.32 15.83,0.02 31.66,-0.04 47.46,0.53 20.09,0.71 40.23,1.2 60.18,3.32 19.87,2.1 39.8,3.86 59.6,7.04 19.3,3.09 38.37,6.86 57.04,12.44 12.75,3.81 25.13,8.67 36.71,15.56 28.53,16.97 46.53,41.84 56.39,73.13 7.73,24.47 9.29,49.68 9.15,75.1 -0.04,6.55 -5.98,12.85 -12.53,13.47 -2.37,0.21 -4.79,0.03 -7.18,0.03l-156.79 0c-1.92,0 -3.84,0.08 -5.76,-0.02 -7.01,-0.35 -13.62,-6.85 -13.86,-13.71 -0.15,-4.32 -0.21,-8.64 -0.01,-12.95 0.38,-8.25 -1.58,-16.21 -3.65,-24.01 -5.19,-19.47 -18.54,-30.84 -37.9,-34.74 -15.4,-3.1 -30.94,-5.28 -46.68,-6.59 -57.92,-4.78 -115.88,-2.47 -173.82,-2.1 -9.04,0.06 -18.06,1.51 -27.1,2.23 -8.56,0.69 -17.09,1.15 -25.64,2.21 -13.26,1.63 -26.43,3.37 -39.39,6.6 -4.61,1.14 -9.22,2.35 -13.74,3.79 -11.6,3.73 -19.57,11.57 -24.64,22.48 -4.43,9.54 -7.83,19.58 -9.64,29.83 -3.49,19.74 -6.34,39.64 -6.28,59.79 0.05,25.89 -0.72,51.83 0.73,77.65 0.92,16.61 1.61,33.32 4.03,49.92 1.93,13.24 3.83,26.43 6.87,39.45 1.09,4.62 2.88,9.07 4.28,13.61 4.59,14.93 14.83,24.18 29.44,28.68 13.65,4.19 27.55,7.44 41.77,9.03 15.17,1.7 30.34,3.4 45.5,4.97 4.29,0.45 8.62,0.5 12.93,0.6 47.95,1.05 95.92,1.53 143.83,-0.27 18.05,-0.68 36.19,-1.84 54.17,-4.68 11.31,-1.78 22.57,-3.46 33.6,-6.42 22.77,-6.09 37.21,-22.45 39.89,-48.55 1.07,-10.43 0.36,-21.08 -0.05,-31.6 -0.18,-4.76 1.2,-8.26 4.61,-11.44 2.21,-2.06 4.35,-3.6 7.5,-3.45 2.87,0.12 5.76,0.02 8.64,0.02l155.35 0.01c2.4,0 4.8,-0.08 7.19,0.01 7.13,0.25 12.83,5.52 12.86,12.52 0.13,25.82 0.53,51.68 -6.27,76.97 -6.28,23.35 -15.76,44.95 -32.46,62.99 -15.37,16.59 -34.22,27.42 -55.52,34 -17.7,5.47 -35.74,9.63 -54.19,12.24 -15.09,2.14 -30.15,4.26 -45.33,5.97 -10.46,1.18 -21,1.25 -31.36,2.7 -17.62,2.44 -35.38,1.42 -52.97,3.02 -38.27,3.46 -76.6,1.51 -114.89,1.88z"/>
   <path class="fil2" d="M5602.32 17638.92c0,-23.49 -0.01,-46.99 0,-70.48 0.01,-3.36 0.15,-6.71 0.09,-10.07 -0.13,-7.76 3.17,-13.88 9.05,-18.64 2.95,-2.4 6.14,-4.53 9.36,-6.58 41.45,-26.34 78.01,-58.48 111.63,-94.1 26.31,-27.86 50.3,-57.57 72.35,-88.93 19.24,-27.35 36.96,-55.6 53.88,-84.43 18.61,-31.69 35.11,-64.46 50.95,-97.57 8.61,-18.01 15.72,-36.74 23.92,-54.96 17.18,-38.22 30.36,-77.97 44.68,-117.25 8.12,-22.29 14.13,-45.34 21.17,-68.03 10.44,-33.57 19.55,-67.53 27.79,-101.68 6.57,-27.25 12.31,-54.69 18.36,-82.06 4.72,-21.37 8.53,-42.9 12,-64.5 2.11,-13.12 5.25,-26.07 7.58,-39.17 1.42,-7.96 2.07,-16.06 3.24,-24.08 1.3,-8.94 2.82,-17.85 4.23,-26.78 0.51,-3.28 1.29,-6.56 1.45,-9.86 0.55,-11.95 2.71,-23.64 4.99,-35.33 0.28,-1.4 0.5,-2.82 0.63,-4.24 1.19,-13.31 1.66,-26.73 3.72,-39.91 1.91,-12.24 1.22,-24.77 4.54,-36.8 0.26,-0.91 0.28,-1.89 0.35,-2.84 1.05,-15.24 2.16,-30.48 3.13,-45.73 1.23,-19.56 1.61,-39.19 3.75,-58.63 1.37,-12.4 1.62,-24.77 2.21,-37.17 0.09,-1.92 -0.05,-3.88 0.35,-5.74 1.76,-8.21 7.44,-13.28 16.74,-11.46 9.79,1.91 19.61,3.85 29.32,6.03 10.28,2.32 20.75,2.63 31.03,4.77 18.15,3.81 36.81,4.66 54.94,8.76 5.08,1.15 10.04,2.83 14.98,4.51 8.73,2.99 12.88,9.57 13.26,18.47 0.25,6.21 0.78,12.66 -0.51,18.64 -1.94,9.03 -1.59,18.07 -2.08,27.1 -1.14,21 -1.57,42.07 -3.47,63 -1.84,20.4 -3.25,40.89 -5.8,61.2 -1.32,10.47 -1.76,20.9 -2.57,31.36 -0.51,6.62 -1.22,13.31 -2.68,19.78 -2.54,11.19 -2.52,22.67 -4.6,33.94 -1.71,9.32 -1.88,18.91 -3.77,28.32 -3.38,16.77 -4.61,33.88 -8.17,50.67 -2.96,13.95 -3.87,28.32 -6.68,42.3 -3.55,17.71 -6.56,35.52 -10.1,53.21 -5.7,28.44 -12.82,56.54 -18.95,84.86 -5.12,23.64 -12.1,46.88 -18.41,70.26 -13.62,50.47 -29.57,100.22 -47.1,149.46 -10.52,29.58 -22.2,58.69 -34.05,87.75 -19.8,48.59 -42.71,95.67 -66.98,142.11 -15.68,30.01 -32.75,59.24 -50.81,87.92 -17.55,27.9 -35.8,55.29 -55.41,81.75 -17.37,23.44 -35.74,46.07 -54.9,68.11 -17.95,20.65 -37.19,39.98 -56.59,59.21 -29.64,29.36 -61.85,55.66 -96.47,78.9 -25.34,17.02 -51.78,32.19 -80.01,44.03 -3.94,1.64 -7.94,3.22 -12.01,4.5 -5.85,1.83 -12.08,-1.74 -13.04,-7.63 -0.61,-3.76 -0.49,-7.65 -0.49,-11.48 -0.03,-24.92 -0.02,-49.85 -0.02,-74.79z"/>
   <path class="fil2" d="M6034.22 14733.71c0,24.92 0.04,49.84 -0.04,74.77 -0.02,4.74 0.32,9.5 -1.7,14.12 -2.62,6 -7.04,10.33 -12.33,13.63 -21.13,13.25 -40.17,29.12 -59.09,45.27 -17.9,15.27 -34.74,31.61 -50.35,49.13 -15.91,17.83 -31.37,36.12 -46.13,54.91 -26.26,33.44 -49.5,69.03 -70.98,105.67 -14.95,25.47 -29.13,51.39 -42.29,77.87 -20.56,41.38 -39.1,83.65 -55.81,126.67 -17.55,45.16 -33.18,91.02 -47.2,137.44 -12.91,42.75 -24.32,85.88 -34.38,129.38 -6.74,29.15 -13.24,58.36 -19.32,87.64 -2.9,13.96 -4.61,28.16 -6.82,42.27 -2.07,13.16 -3.56,26.44 -6.37,39.44 -1.23,5.67 -1.68,11.28 -2.38,16.94 -0.65,5.19 -1.63,10.32 -2.46,15.48 -1.7,10.8 -3.44,21.59 -5.05,32.4 -0.42,2.83 -0.47,5.72 -0.58,8.59 -0.5,13.37 -2.85,26.5 -5.04,39.65 -0.23,1.41 -0.56,2.83 -0.54,4.24 0.29,16.29 -2.49,32.37 -3.36,48.59 -0.56,10.47 -1.93,20.89 -2.53,31.36 -0.57,10.04 0.43,20.28 -1.15,30.13 -2.52,15.74 -1.55,31.49 -2.19,47.22 -0.68,16.7 -1.44,33.39 -2.3,50.09 -0.53,10.26 -6.99,15.38 -17.32,13.81 -5.16,-0.78 -10.38,-1.51 -15.42,-2.83 -10.17,-2.64 -20.5,-4.11 -30.89,-5.44 -8,-1.03 -15.93,-2.7 -23.8,-4.45 -7.47,-1.66 -15.38,-0.15 -22.59,-3.36 -13.85,-0.69 -27.3,-4.03 -40.89,-6.38 -3.73,-0.64 -7.37,-1.8 -11.08,-2.61 -8.87,-1.93 -12.63,-8.35 -13.31,-16.47 -0.61,-7.13 -0.91,-14.56 0.49,-21.49 1.24,-6.19 1.26,-12.33 1.9,-18.48 0.93,-9 1.86,-18 2.8,-27 0.89,-8.52 -0.58,-17.26 2.34,-25.62 0.46,-1.3 0.17,-2.86 0.21,-4.29 0.4,-17.21 2.8,-34.18 5.62,-51.12 0.23,-1.41 0.17,-2.87 0.21,-4.31 0.63,-21.02 4.04,-41.77 6.8,-62.53 1.69,-12.71 2.39,-25.6 5.16,-38.17 4.39,-19.97 5.45,-40.5 10.5,-60.38 1.86,-7.34 2.22,-15.05 3.63,-22.53 3.62,-19.14 6.9,-38.34 10.63,-57.47 3.82,-19.59 8.08,-39.08 12.45,-58.55 3.01,-13.43 6.25,-26.81 9.64,-40.16 6.29,-24.85 12.57,-49.72 19.25,-74.47 4.44,-16.49 9.43,-32.85 14.4,-49.2 6.62,-21.81 12.73,-43.81 20.36,-65.26 14.96,-42.08 29.57,-84.3 47.06,-125.46 10.79,-25.4 21.63,-50.76 33.15,-75.85 11.74,-25.55 24.22,-50.72 37.36,-75.56 18.27,-34.56 37.34,-68.66 58.39,-101.64 15.66,-24.54 31.33,-49.06 48.55,-72.52 20.08,-27.36 40.53,-54.45 63.43,-79.59 13.84,-15.21 27.09,-31 41.44,-45.7 13.03,-13.35 26.82,-26.02 40.95,-38.2 17,-14.64 34.42,-28.83 52.65,-42.01 26.77,-19.33 55.29,-35.59 85.07,-49.72 2.55,-1.21 5.3,-2.19 8.05,-2.81 5.75,-1.3 11.92,2.81 12.76,8.66 0.54,3.77 0.42,7.65 0.43,11.48 0.03,24.93 0.02,49.85 0.02,74.78l-0.01 0z"/>
   <path class="fil2" d="M5602.32 17291.99c0,-30.69 -0.01,-61.37 0,-92.06 0,-4.31 0.18,-8.63 0.07,-12.94 -0.18,-6.97 2.22,-12.89 5.91,-18.76 20.03,-31.9 39.1,-64.35 55.47,-98.32 13.44,-27.86 25.36,-56.37 36.65,-85.19 9.88,-25.24 19.16,-50.66 27.08,-76.58 10.54,-34.52 21.11,-69.05 29.23,-104.23 5.56,-24.07 10.55,-48.27 15.8,-72.41 2.11,-9.75 4.39,-19.46 6.29,-29.26 2.79,-14.46 5.07,-29.02 8,-43.46 3.11,-15.38 4.13,-31.09 7.64,-46.44 1.69,-7.35 2.15,-15.09 2.96,-22.64 1.38,-12.82 3.31,-25.48 5.83,-38.09 0.38,-1.86 0.27,-3.82 0.36,-5.73 0.63,-13.36 2.49,-26.55 5.34,-39.6 0.2,-0.92 0.21,-1.9 0.29,-2.85 1.08,-12.85 1.97,-25.7 3.27,-38.52 1.39,-13.73 3.17,-27.43 4.78,-41.14 0.17,-1.41 0.4,-2.83 0.49,-4.26 1.2,-20.51 1.87,-41.07 3.72,-61.53 1.65,-18.11 2.43,-36.22 3.03,-54.37 0.12,-3.74 1.23,-7.54 2.42,-11.12 1.84,-5.55 7.76,-8.96 13.71,-7.92 13.11,2.28 26.13,5.09 39.28,7.1 10.83,1.68 21.75,2.99 32.68,3.62 13.39,0.79 26.84,0.59 40.26,1.03 11.92,0.39 23.83,1.02 35.74,1.72 8,0.47 12.27,4.43 13.12,12.36 0.4,3.79 0.82,7.98 -0.38,11.43 -2.11,6.12 -1.66,12.3 -2.09,18.46 -1.1,15.72 -3.35,31.35 -3.2,47.16 -3.21,10.08 -1.33,20.93 -4.63,31.02 -0.58,1.77 -0.3,3.81 -0.45,5.71 -1.14,14.28 -2.05,28.58 -3.55,42.81 -1,9.45 -2.87,18.8 -4.32,28.19 -0.3,1.88 -0.64,3.77 -0.71,5.66 -0.68,17.21 -4.63,33.98 -6.85,50.98 -2.14,16.48 -5.74,32.75 -8.25,49.21 -1.57,10.33 -3.71,20.57 -5.71,30.84 -2.63,13.52 -5.57,26.98 -8.02,40.53 -4.64,25.72 -10.53,51.16 -16.49,76.6 -5.4,23.13 -11.14,46.17 -16.84,69.22 -6.27,25.35 -13.94,50.33 -21.69,75.3 -8.87,28.58 -17.79,57.13 -28,85.28 -13.78,38.01 -28.06,75.8 -44.49,112.76 -11.61,26.12 -23.49,52.09 -36.64,77.47 -22.62,43.68 -47.62,85.96 -76,126.1 -16,22.64 -33.32,44.31 -51.7,65.15 -12.07,13.68 -25.12,26.34 -37.74,39.42 -3.37,3.49 -7.03,6.51 -11.42,8.56 -3.52,1.65 -8.47,-0.42 -9.23,-4.23 -0.73,-3.7 -0.95,-7.57 -0.97,-11.36 -0.09,-23.02 -0.05,-46.03 -0.05,-69.04 0,-10.55 0,-21.1 0,-31.64z"/>
   <path class="fil1" d="M4719.86 15962c32.12,0 64.24,0.17 96.36,-0.09 12.9,-0.09 24.28,3.47 35.08,10.45 53.87,34.82 110.65,63.91 170.09,88.15 36.67,14.95 73.89,28.12 111.49,40.39 33.08,10.8 66.75,19.37 100.46,27.87 27.26,6.88 54.62,13.29 82.19,18.76 14.04,2.79 28.23,4.77 42.35,7.15 14.56,2.45 29.11,5.07 43.7,7.36 9.9,1.56 19.88,2.58 29.79,4.02 18.45,2.69 36.97,4.58 55.5,6.6 19.95,2.18 39.86,4.34 59.87,5.95 12.4,0.99 24.83,1.34 37.19,2.48 33.91,3.14 67.9,3.19 101.91,3.27 5.21,0.01 10.45,0.75 15.63,1.49 7.3,1.04 11.38,4.68 12.57,11.72 0.71,4.21 0.57,8.6 0.58,12.9 0.06,23.49 0.05,46.98 0.06,70.47 0,18.22 0.01,36.43 0.01,54.66 -0.01,3.36 0.07,6.72 -0.15,10.06 -0.73,11.09 -5.27,15.59 -16.05,16.07 -0.95,0.05 -1.91,0.04 -2.87,0.01 -11.93,-0.49 -23.94,0.38 -35.75,-2.31 -2.76,-0.63 -5.73,-0.32 -8.6,-0.47 -21.02,-1.17 -42.06,-2.11 -63.06,-3.62 -11.89,-0.85 -23.71,-2.68 -35.56,-4.06 -2.85,-0.33 -5.7,-0.7 -8.56,-0.83 -16.26,-0.71 -32.32,-3.03 -48.39,-5.4 -11.34,-1.68 -22.81,-2.35 -34.17,-3.92 -14.18,-1.95 -28.3,-4.3 -42.43,-6.62 -15.52,-2.55 -31.03,-5.16 -46.51,-7.92 -9.38,-1.67 -18.69,-3.67 -28.02,-5.57 -23.35,-4.73 -46.81,-8.97 -70.03,-14.32 -50.61,-11.64 -100.93,-24.46 -150.46,-40.16 -58.13,-18.43 -115.61,-38.73 -171.7,-62.79 -57.07,-24.48 -112.6,-51.96 -165.82,-84.06 -27.86,-16.81 -54.95,-34.72 -81.06,-54.14 -33.92,-25.24 -65.39,-53.18 -94.61,-83.69 -1.99,-2.08 -4,-4.18 -5.64,-6.52 -3.86,-5.55 -1.2,-12.17 5.34,-13 4.26,-0.54 8.61,-0.45 12.92,-0.45 32.12,-0.03 64.24,-0.02 96.36,-0.02l-0.01 0.13z"/>
   <path class="fil1" d="M6926.08 16409.87c-29.72,0 -59.45,-0.1 -89.17,0.04 -13.31,0.07 -25.2,-3.49 -36.41,-10.86 -40.77,-26.83 -83.66,-49.73 -128.14,-69.88 -46.52,-21.09 -94.11,-39.12 -142.67,-54.87 -46.71,-15.16 -94.21,-27.33 -141.95,-38.61 -27.36,-6.45 -55.01,-11.72 -82.6,-17.08 -13.58,-2.64 -27.33,-4.33 -41.02,-6.37 -19.34,-2.87 -38.68,-5.78 -58.06,-8.47 -7.56,-1.06 -15.21,-1.82 -22.78,-2.4 -24.78,-1.93 -49.24,-6.72 -74.2,-7.3 -16.18,-0.38 -32.32,-2.82 -48.49,-4.3 -2.38,-0.21 -4.78,-0.31 -7.17,-0.38 -33.5,-0.99 -66.95,-3.51 -100.49,-2.79 -5.27,0.12 -10.56,0.09 -15.81,-0.28 -9.75,-0.71 -14.53,-5.73 -14.89,-15.7 -0.18,-5.25 -0.15,-10.58 0.39,-15.8 1.63,-15.66 3.42,-31.31 5.4,-46.93 1.2,-9.44 2.99,-18.81 4.27,-28.24 2.11,-15.63 4.51,-31.25 4.3,-47.08 -0.07,-4.89 0.75,-9.57 2.56,-13.98 1.95,-4.74 5.59,-7.91 10.98,-7.91 14.35,0 28.72,-0.51 43,1.6 2.83,0.42 5.69,0.72 8.55,0.88 21.98,1.26 44.01,1.84 65.92,3.89 22.31,2.1 44.69,3.74 66.9,7.2 11.29,1.76 22.83,1.51 34.2,3.58 22.54,4.09 45.36,6.27 67.87,10.64 20.58,3.99 41.45,6.5 62.09,10.2 18.29,3.27 36.51,7.02 54.67,11.03 27.91,6.16 55.75,12.6 83.41,19.84 30.88,8.1 61.62,16.65 92.13,26.07 48.77,15.06 96.7,32.38 143.9,51.74 33.99,13.94 67.24,29.52 100.11,45.97 46.26,23.13 90.53,49.49 132.82,79.22 25.48,17.91 49.85,37.19 73.02,58.04 16.77,15.11 32.49,31.17 47.37,48.09 2.85,3.24 5.76,6.38 7.37,10.53 1.11,2.85 0.65,5.68 -1.8,7.58 -2.27,1.79 -4.66,3.24 -7.77,3.17 -3.83,-0.09 -7.67,0.16 -11.51,0.16 -28.76,0.01 -57.54,0.01 -86.3,0.01l0 -0.25 0 0z"/>
   <path class="fil2" d="M6034.13 15080.3c0,31.64 -0.29,63.29 0.14,94.92 0.18,12.39 -2.46,23.45 -9.16,33.87 -10.06,15.64 -19.69,31.56 -29.47,47.38 -1.75,2.83 -3.51,5.67 -5.04,8.64 -10.2,19.86 -20.54,39.67 -29.82,59.99 -6.1,13.39 -11.95,26.92 -17.3,40.63 -5.68,14.57 -11.31,29.19 -16.95,43.76 -6.19,15.97 -10.72,32.4 -16.11,48.58 -12.47,37.39 -22.2,75.59 -31.58,113.87 -4.63,18.9 -9.17,37.84 -13.33,56.85 -2.84,12.99 -4.98,26.14 -7.41,39.22 -1.98,10.76 -3.12,21.74 -6.13,32.2 -2.67,9.29 -2.01,18.87 -4.61,28.16 -2.8,10.01 -4.29,20.49 -5.33,30.86 -0.89,9.03 -2.42,17.93 -3.74,26.88 -2.44,16.49 -4.46,33.02 -6.45,49.56 -2.05,17.03 -4.1,34.03 -5.73,51.1 -1.96,20.4 -3.92,40.81 -5.95,61.2 -1.34,13.34 -1.6,26.67 -2.46,40 -0.52,8.07 -1.54,16.11 -2.34,24.16 -0.79,8.06 -0.13,16.16 -2.22,24.22 -1.41,5.43 -0.74,11.44 -0.69,17.19 0.09,8.16 -1.16,16.14 -2.75,24.09 -1.17,5.88 -3.72,8.28 -9.94,7.74 -9.48,-0.84 -19.02,-1.81 -28.32,-3.76 -13.11,-2.73 -26.22,-4.74 -39.64,-4.87 -10.01,-0.11 -19.96,-0.64 -29.96,-2.03 -10.37,-1.44 -21.06,-0.48 -31.6,-0.68 -3.79,-0.07 -7.51,0.09 -11.22,-1.69 -4.8,-2.31 -7.66,-5.51 -7.76,-10.94 -0.03,-1.91 -0.24,-3.83 -0.18,-5.74 0.46,-15.27 -0.74,-30.64 2.6,-45.75 0.31,-1.38 0.15,-2.87 0.23,-4.3 1.19,-21.48 2.28,-42.96 3.63,-64.42 0.42,-6.64 1.61,-13.23 2.31,-19.84 0.7,-6.63 1.3,-13.26 2.17,-19.86 1.37,-10.36 2.55,-20.84 3.24,-31.28 0.87,-13.36 2.95,-26.46 5.37,-39.59 1.72,-9.35 1.31,-18.97 3.47,-28.35 2.12,-9.25 3.39,-18.7 4.91,-28.08 1.45,-8.92 2.56,-17.9 4.13,-26.8 4.81,-27.14 9.45,-54.31 14.77,-81.35 3.38,-17.23 7.7,-34.28 11.87,-51.34 6.29,-25.84 12.66,-51.65 19.3,-77.39 3.55,-13.79 7.6,-27.45 11.66,-41.1 8.69,-29.11 17.04,-58.35 27.41,-86.93 12.65,-34.85 25.51,-69.6 39.81,-103.84 17.63,-42.21 36.79,-83.66 58.36,-124 13.5,-25.22 27.83,-49.97 42.95,-74.26 15.42,-24.75 32.14,-48.56 49.94,-71.62 17.57,-22.74 36.08,-44.69 56.93,-64.55 2.42,-2.31 4.99,-4.49 7.73,-6.4 3.13,-2.19 8.51,-0.17 9.27,3.65 0.73,3.71 0.95,7.57 0.96,11.37 0.08,26.37 0.03,52.73 0.03,79.1l0 21.57 0 0z"/>
   <path class="fil0" d="M9344.83 17018.43c-43.63,0 -87.26,0.01 -130.89,0 -3.35,0 -6.71,-0.01 -10.07,-0.12 -1.75,-0.06 -2.91,-2.59 -2.01,-4.33 1.1,-2.13 2.24,-4.23 3.41,-6.3 33.88,-59.3 67.76,-118.57 101.63,-177.86 10.88,-19.06 21.72,-38.15 32.6,-57.22 0.71,-1.24 1.53,-2.42 2.32,-3.62 1.21,-1.81 3.02,-1.72 4.23,0.34 7.02,11.94 14.04,23.88 20.99,35.85 30.68,52.85 61.36,105.72 92,158.6 9.57,16.52 19.02,33.12 28.47,49.72 2.02,3.55 1.15,4.89 -3.17,4.9 -24.45,0.05 -48.9,0.03 -73.35,0.03l-66.16 0.01 0 0z"/>
  </g>
 </g>
</svg>
